<svg width="169" height="31" viewBox="0 0 169 31" fill="none" xmlns="http://www.w3.org/2000/svg">
<path d="M42.925 6.5H49.475C51.1417 6.5 52.625 6.85 53.925 7.55C55.2417 8.25 56.2667 9.25833 57 10.575C57.7333 11.8917 58.1 13.45 58.1 15.25C58.1 17.05 57.7333 18.6083 57 19.925C56.2667 21.2417 55.2417 22.25 53.925 22.95C52.625 23.65 51.1417 24 49.475 24H42.925V6.5ZM49.475 21.15C51.1417 21.15 52.4083 20.6333 53.275 19.6C54.1583 18.55 54.6 17.1 54.6 15.25C54.6 13.4 54.1583 11.9583 53.275 10.925C52.4083 9.875 51.1417 9.35 49.475 9.35H46.125V21.15H49.475ZM66.3217 24.25C64.8717 24.25 63.63 23.9583 62.5967 23.375C61.58 22.775 60.8133 21.9833 60.2967 21C59.7967 20 59.5467 18.8917 59.5467 17.675C59.5467 16.5083 59.7883 15.4417 60.2717 14.475C60.755 13.5083 61.455 12.7417 62.3717 12.175C63.2883 11.5917 64.38 11.3 65.6467 11.3C66.8133 11.3 67.7967 11.5417 68.5967 12.025C69.4133 12.5083 70.0217 13.1583 70.4217 13.975C70.8383 14.7917 71.0467 15.7083 71.0467 16.725C71.0467 17.225 70.98 17.7917 70.8467 18.425H62.7717C62.9383 19.525 63.3717 20.35 64.0717 20.9C64.7717 21.4333 65.6133 21.7 66.5967 21.7C67.9467 21.7 69.1967 21.3583 70.3467 20.675L70.4967 23.3C69.9633 23.5833 69.3383 23.8167 68.6217 24C67.9217 24.1667 67.155 24.25 66.3217 24.25ZM67.8967 16.325C67.8967 15.675 67.7133 15.1 67.3467 14.6C66.98 14.1 66.4133 13.85 65.6467 13.85C64.88 13.85 64.2633 14.075 63.7967 14.525C63.33 14.975 63.0133 15.575 62.8467 16.325H67.8967ZM76.7129 24.25C75.9129 24.25 75.1796 24.175 74.5129 24.025C73.8629 23.875 73.1879 23.6417 72.4879 23.325L72.7629 20.675C73.4629 21.0917 74.1129 21.4083 74.7129 21.625C75.3296 21.825 75.9629 21.925 76.6129 21.925C77.8796 21.925 78.5129 21.5083 78.5129 20.675C78.5129 20.225 78.3462 19.8833 78.0129 19.65C77.6796 19.4 77.0796 19.1083 76.2129 18.775C74.9796 18.325 74.0712 17.8167 73.4879 17.25C72.9046 16.6667 72.6129 15.8833 72.6129 14.9C72.6129 13.8167 73.0296 12.9417 73.8629 12.275C74.6962 11.5917 75.8212 11.25 77.2379 11.25C78.6546 11.25 79.9462 11.575 81.1129 12.225L80.8379 14.875C80.2046 14.4417 79.6046 14.1083 79.0379 13.875C78.4879 13.6417 77.9046 13.525 77.2879 13.525C76.7546 13.525 76.3379 13.6333 76.0379 13.85C75.7546 14.0667 75.6129 14.375 75.6129 14.775C75.6129 15.0917 75.6962 15.35 75.8629 15.55C76.0462 15.75 76.2962 15.9333 76.6129 16.1C76.9296 16.25 77.4546 16.4667 78.1879 16.75C79.4046 17.2167 80.2796 17.7333 80.8129 18.3C81.3462 18.85 81.6129 19.5917 81.6129 20.525C81.6129 21.7083 81.1879 22.625 80.3379 23.275C79.4879 23.925 78.2796 24.25 76.7129 24.25ZM83.7342 6.5H86.8342V9.6H83.7342V6.5ZM83.7342 11.5H86.8342V24H83.7342V11.5ZM94.69 30.3C92.9234 30.3 91.515 29.975 90.465 29.325C89.415 28.6917 88.89 27.825 88.89 26.725C88.89 25.525 89.565 24.5417 90.915 23.775C90.1817 23.325 89.815 22.7333 89.815 22C89.815 21.6167 89.9234 21.275 90.14 20.975C90.3734 20.675 90.6817 20.4333 91.065 20.25C90.4317 19.8 89.9484 19.225 89.615 18.525C89.2984 17.825 89.14 17.0583 89.14 16.225C89.14 15.3083 89.34 14.475 89.74 13.725C90.14 12.9583 90.7234 12.3583 91.49 11.925C92.2567 11.475 93.165 11.25 94.215 11.25C95.315 11.25 96.265 11.5167 97.065 12.05C97.3484 11.9 97.7234 11.775 98.19 11.675C98.6734 11.5583 99.19 11.5 99.74 11.5H100.54L100.34 13.45H99.215C98.9317 13.45 98.6984 13.4583 98.515 13.475C99.015 14.2417 99.265 15.1583 99.265 16.225C99.265 17.1417 99.065 17.9833 98.665 18.75C98.2817 19.5 97.7067 20.1 96.94 20.55C96.1734 20.9833 95.265 21.2 94.215 21.2C93.8317 21.2 93.39 21.1417 92.89 21.025C92.7067 21.1083 92.615 21.2417 92.615 21.425C92.615 21.6417 92.74 21.8167 92.99 21.95C93.2567 22.0667 93.6984 22.1667 94.315 22.25L96.465 22.525C99.3317 22.9083 100.765 24.1167 100.765 26.15C100.765 27.4167 100.223 28.425 99.14 29.175C98.0734 29.925 96.59 30.3 94.69 30.3ZM94.215 18.9C94.9317 18.9 95.4817 18.6667 95.865 18.2C96.265 17.7167 96.465 17.0583 96.465 16.225C96.465 15.3917 96.265 14.7417 95.865 14.275C95.4817 13.7917 94.9317 13.55 94.215 13.55C93.4817 13.55 92.915 13.7917 92.515 14.275C92.1317 14.7417 91.94 15.3917 91.94 16.225C91.94 17.0583 92.1317 17.7167 92.515 18.2C92.915 18.6667 93.4817 18.9 94.215 18.9ZM94.815 27.95C96.9484 27.95 98.015 27.425 98.015 26.375C98.015 25.9083 97.8317 25.5583 97.465 25.325C97.0984 25.1083 96.49 24.9333 95.64 24.8L92.89 24.4C91.94 24.7833 91.465 25.3667 91.465 26.15C91.465 26.75 91.7567 27.2 92.34 27.5C92.9234 27.8 93.7484 27.95 94.815 27.95ZM108.564 11.3C110.114 11.3 111.289 11.8167 112.089 12.85C112.889 13.8833 113.289 15.275 113.289 17.025V24H110.189V17.275C110.189 16.1083 109.989 15.25 109.589 14.7C109.206 14.1333 108.581 13.85 107.714 13.85C106.764 13.85 105.981 14.2083 105.364 14.925V24H102.264V11.5H105.164L105.214 12.375C106.264 11.6583 107.381 11.3 108.564 11.3ZM131.824 14.425C134.04 15.1417 135.149 16.675 135.149 19.025C135.149 20.5917 134.64 21.8167 133.624 22.7C132.607 23.5667 131.215 24 129.449 24H122.149V6.5H128.749C132.082 6.5 133.749 7.90833 133.749 10.725C133.749 12.4583 133.107 13.6917 131.824 14.425ZM125.349 13.375H128.274C129.057 13.375 129.64 13.2167 130.024 12.9C130.407 12.5667 130.599 12.0583 130.599 11.375C130.599 10.6583 130.407 10.1417 130.024 9.825C129.64 9.50833 129.057 9.35 128.274 9.35H125.349V13.375ZM128.974 21.15C129.907 21.15 130.615 20.9667 131.099 20.6C131.599 20.2167 131.849 19.575 131.849 18.675C131.849 17.7917 131.59 17.1667 131.074 16.8C130.574 16.4167 129.874 16.225 128.974 16.225H125.349V21.15H128.974ZM140.377 24.25C139.31 24.25 138.51 23.95 137.977 23.35C137.443 22.7333 137.177 21.9417 137.177 20.975V5.25H140.277V19.7C140.277 20.3667 140.31 20.8417 140.377 21.125C140.46 21.3917 140.593 21.5583 140.777 21.625C140.977 21.675 141.31 21.7 141.777 21.7L141.502 24.25H140.377ZM149.297 24.25C147.98 24.25 146.839 23.9583 145.872 23.375C144.905 22.7917 144.164 22.0083 143.647 21.025C143.13 20.0417 142.872 18.9583 142.872 17.775C142.872 16.5917 143.13 15.5 143.647 14.5C144.164 13.5 144.905 12.7083 145.872 12.125C146.839 11.5417 147.98 11.25 149.297 11.25C150.614 11.25 151.755 11.5417 152.722 12.125C153.689 12.7083 154.43 13.5 154.947 14.5C155.464 15.5 155.722 16.5917 155.722 17.775C155.722 18.9583 155.464 20.0417 154.947 21.025C154.43 22.0083 153.689 22.7917 152.722 23.375C151.755 23.9583 150.614 24.25 149.297 24.25ZM149.297 21.7C150.314 21.7 151.105 21.3417 151.672 20.625C152.255 19.9083 152.547 18.9583 152.547 17.775C152.547 16.575 152.255 15.6167 151.672 14.9C151.105 14.1667 150.314 13.8 149.297 13.8C148.28 13.8 147.48 14.1667 146.897 14.9C146.33 15.6167 146.047 16.575 146.047 17.775C146.047 18.9583 146.33 19.9083 146.897 20.625C147.48 21.3417 148.28 21.7 149.297 21.7ZM162.83 30.3C161.063 30.3 159.655 29.975 158.605 29.325C157.555 28.6917 157.03 27.825 157.03 26.725C157.03 25.525 157.705 24.5417 159.055 23.775C158.321 23.325 157.955 22.7333 157.955 22C157.955 21.6167 158.063 21.275 158.28 20.975C158.513 20.675 158.821 20.4333 159.205 20.25C158.571 19.8 158.088 19.225 157.755 18.525C157.438 17.825 157.28 17.0583 157.28 16.225C157.28 15.3083 157.48 14.475 157.88 13.725C158.28 12.9583 158.863 12.3583 159.63 11.925C160.396 11.475 161.305 11.25 162.355 11.25C163.455 11.25 164.405 11.5167 165.205 12.05C165.488 11.9 165.863 11.775 166.33 11.675C166.813 11.5583 167.33 11.5 167.88 11.5H168.68L168.48 13.45H167.355C167.071 13.45 166.838 13.4583 166.655 13.475C167.155 14.2417 167.405 15.1583 167.405 16.225C167.405 17.1417 167.205 17.9833 166.805 18.75C166.421 19.5 165.846 20.1 165.08 20.55C164.313 20.9833 163.405 21.2 162.355 21.2C161.971 21.2 161.53 21.1417 161.03 21.025C160.846 21.1083 160.755 21.2417 160.755 21.425C160.755 21.6417 160.88 21.8167 161.13 21.95C161.396 22.0667 161.838 22.1667 162.455 22.25L164.605 22.525C167.471 22.9083 168.905 24.1167 168.905 26.15C168.905 27.4167 168.363 28.425 167.28 29.175C166.213 29.925 164.73 30.3 162.83 30.3ZM162.355 18.9C163.071 18.9 163.621 18.6667 164.005 18.2C164.405 17.7167 164.605 17.0583 164.605 16.225C164.605 15.3917 164.405 14.7417 164.005 14.275C163.621 13.7917 163.071 13.55 162.355 13.55C161.621 13.55 161.055 13.7917 160.655 14.275C160.271 14.7417 160.08 15.3917 160.08 16.225C160.08 17.0583 160.271 17.7167 160.655 18.2C161.055 18.6667 161.621 18.9 162.355 18.9ZM162.955 27.95C165.088 27.95 166.155 27.425 166.155 26.375C166.155 25.9083 165.971 25.5583 165.605 25.325C165.238 25.1083 164.63 24.9333 163.78 24.8L161.03 24.4C160.08 24.7833 159.605 25.3667 159.605 26.15C159.605 26.75 159.896 27.2 160.48 27.5C161.063 27.8 161.888 27.95 162.955 27.95Z" fill="white"/>
<path d="M21.1541 8.07995C21.1242 7.7707 21.2366 7.46504 21.4566 7.25691L23.6975 4.42328V4H16.7395L11.3613 16.381L6.63305 4H0V4.42328L1.91596 6.35156C2.08114 6.48372 2.16308 6.70094 2.12885 6.91593V21.0841C2.16308 21.2991 2.08114 21.5163 1.91596 21.6484L0.044817 23.5767V24H9.45658V23.5767L7.51821 21.6014C7.32773 21.4015 7.32773 21.3427 7.32773 21.037V9.58495L12.7171 23.953H13.4454L19.7199 9.58495V19.2146C19.7722 19.6194 19.6441 20.027 19.3725 20.3198L16.8515 23.5297V23.953H24V23.5297L21.479 20.3198C21.2094 20.0266 21.0888 19.6162 21.1541 19.2146V8.07995Z" fill="white"/>
</svg>
