<svg width="117" height="31" viewBox="0 0 117 31" fill="none" xmlns="http://www.w3.org/2000/svg">
<g clip-path="url(#clip0)">
<path d="M4 8H20C21.1 8 22 8.9 22 10V22C22 23.1 21.1 24 20 24H4C2.9 24 2 23.1 2 22V10C2 8.9 2.9 8 4 8Z" stroke="white" stroke-width="2" stroke-linecap="round" stroke-linejoin="round"/>
<path d="M22 10L12 17L2 10" stroke="white" stroke-width="2" stroke-linecap="round" stroke-linejoin="round"/>
</g>
<path d="M52 24.35C51.0167 24.35 49.9583 24.2167 48.825 23.95C47.7083 23.6833 46.8333 23.3917 46.2 23.075L46.575 19.675C48.775 20.7417 50.7083 21.275 52.375 21.275C53.2583 21.275 53.95 21.1083 54.45 20.775C54.95 20.425 55.2 19.9167 55.2 19.25C55.2 18.75 55.0583 18.3417 54.775 18.025C54.5083 17.6917 54.1167 17.4167 53.6 17.2C53.0833 16.9667 52.2583 16.65 51.125 16.25C50.0583 15.8833 49.175 15.5 48.475 15.1C47.775 14.6833 47.2167 14.1583 46.8 13.525C46.4 12.875 46.2 12.0833 46.2 11.15C46.2 9.65 46.75 8.44167 47.85 7.525C48.95 6.60833 50.525 6.15 52.575 6.15C53.5417 6.15 54.5 6.25833 55.45 6.475C56.4167 6.69167 57.3 6.95833 58.1 7.275L57.775 10.55C56.7417 10.1 55.7917 9.76667 54.925 9.55C54.075 9.31667 53.225 9.2 52.375 9.2C51.425 9.2 50.7 9.35833 50.2 9.675C49.7 9.99167 49.45 10.45 49.45 11.05C49.45 11.5167 49.5833 11.9 49.85 12.2C50.1167 12.5 50.475 12.75 50.925 12.95C51.3917 13.15 52.075 13.3917 52.975 13.675C54.9917 14.3083 56.4583 15.0417 57.375 15.875C58.3083 16.6917 58.775 17.8167 58.775 19.25C58.775 20.6167 58.3 21.8083 57.35 22.825C56.4 23.8417 54.6167 24.35 52 24.35ZM63.652 24.25C62.6186 24.25 61.752 23.9167 61.052 23.25C60.3686 22.5667 60.027 21.65 60.027 20.5C60.027 19.4167 60.4186 18.55 61.202 17.9C61.9853 17.2333 62.9103 16.7667 63.977 16.5C65.0436 16.2167 66.0686 16.0583 67.052 16.025C67.0186 15.2917 66.827 14.7667 66.477 14.45C66.1436 14.1333 65.5853 13.975 64.802 13.975C64.252 13.975 63.7103 14.05 63.177 14.2C62.6603 14.35 62.0603 14.5917 61.377 14.925L61.102 12.4C62.6186 11.6667 64.1353 11.3 65.652 11.3C67.1186 11.3 68.2353 11.7 69.002 12.5C69.7853 13.3 70.177 14.575 70.177 16.325V19.7C70.177 20.3333 70.202 20.7917 70.252 21.075C70.3186 21.3417 70.4186 21.5167 70.552 21.6C70.702 21.6667 70.9436 21.7 71.277 21.7H71.677L71.402 24.25H70.277C69.5936 24.25 69.0186 24.125 68.552 23.875C68.0853 23.6083 67.727 23.25 67.477 22.8C67.077 23.25 66.527 23.6083 65.827 23.875C65.1436 24.125 64.4186 24.25 63.652 24.25ZM64.952 21.875C65.2686 21.875 65.627 21.8 66.027 21.65C66.427 21.4833 66.777 21.2583 67.077 20.975V18.125C66.077 18.175 65.1936 18.3917 64.427 18.775C63.6603 19.1583 63.277 19.6917 63.277 20.375C63.277 20.8917 63.4103 21.275 63.677 21.525C63.9436 21.7583 64.3686 21.875 64.952 21.875ZM76.641 23.175L71.441 11.5H74.891L78.091 19.55L81.341 11.5H84.791L76.966 30.05H73.866L76.641 23.175ZM98.209 11.3C99.7923 11.3 100.967 11.8167 101.734 12.85C102.517 13.8667 102.909 15.2667 102.909 17.05V24H99.809V17.275C99.809 16.0917 99.6173 15.225 99.234 14.675C98.8507 14.125 98.2423 13.85 97.409 13.85C96.4257 13.85 95.6173 14.2083 94.984 14.925V24H91.884V5.25H94.984V12.3C95.484 11.9833 95.9923 11.7417 96.509 11.575C97.0257 11.3917 97.5923 11.3 98.209 11.3ZM105.679 6.5H108.779V9.6H105.679V6.5ZM105.679 11.5H108.779V24H105.679V11.5ZM112.084 18.1L111.809 6.5H114.909L114.634 18.1V18.825H112.084V18.1ZM111.734 20.6H114.984V24H111.734V20.6Z" fill="white"/>
<defs>
<clipPath id="clip0">
<rect width="24" height="24" fill="white" transform="translate(0 6)"/>
</clipPath>
</defs>
</svg>
