<svg width="114" height="31" viewBox="0 0 114 31" fill="none" xmlns="http://www.w3.org/2000/svg">
<g clip-path="url(#clip0)">
<path d="M16 27.9999V24.1299C16.0375 23.6531 15.9731 23.1737 15.811 22.7237C15.6489 22.2737 15.3929 21.8634 15.06 21.5199C18.2 21.1699 21.5 19.9799 21.5 14.5199C21.4997 13.1238 20.9627 11.7811 20 10.7699C20.4559 9.54844 20.4236 8.19829 19.91 6.99994C19.91 6.99994 18.73 6.64994 16 8.47994C13.708 7.85876 11.292 7.85876 9 8.47994C6.27 6.64994 5.09 6.99994 5.09 6.99994C4.57638 8.19829 4.54414 9.54844 5 10.7699C4.03013 11.7886 3.49252 13.1434 3.5 14.5499C3.5 19.9699 6.8 21.1599 9.94 21.5499C9.611 21.8899 9.35726 22.2953 9.19531 22.7399C9.03335 23.1844 8.96681 23.658 9 24.1299V27.9999M9 24.9999C4 26.4999 4 22.4999 2 21.9999L9 24.9999Z" stroke="white" stroke-width="2" stroke-linecap="round" stroke-linejoin="round"/>
</g>
<path d="M51.4 30.3C49.6333 30.3 48.225 29.975 47.175 29.325C46.125 28.6917 45.6 27.825 45.6 26.725C45.6 25.525 46.275 24.5417 47.625 23.775C46.8917 23.325 46.525 22.7333 46.525 22C46.525 21.6167 46.6333 21.275 46.85 20.975C47.0833 20.675 47.3917 20.4333 47.775 20.25C47.1417 19.8 46.6583 19.225 46.325 18.525C46.0083 17.825 45.85 17.0583 45.85 16.225C45.85 15.3083 46.05 14.475 46.45 13.725C46.85 12.9583 47.4333 12.3583 48.2 11.925C48.9667 11.475 49.875 11.25 50.925 11.25C52.025 11.25 52.975 11.5167 53.775 12.05C54.0583 11.9 54.4333 11.775 54.9 11.675C55.3833 11.5583 55.9 11.5 56.45 11.5H57.25L57.05 13.45H55.925C55.6417 13.45 55.4083 13.4583 55.225 13.475C55.725 14.2417 55.975 15.1583 55.975 16.225C55.975 17.1417 55.775 17.9833 55.375 18.75C54.9917 19.5 54.4167 20.1 53.65 20.55C52.8833 20.9833 51.975 21.2 50.925 21.2C50.5417 21.2 50.1 21.1417 49.6 21.025C49.4167 21.1083 49.325 21.2417 49.325 21.425C49.325 21.6417 49.45 21.8167 49.7 21.95C49.9667 22.0667 50.4083 22.1667 51.025 22.25L53.175 22.525C56.0417 22.9083 57.475 24.1167 57.475 26.15C57.475 27.4167 56.9333 28.425 55.85 29.175C54.7833 29.925 53.3 30.3 51.4 30.3ZM50.925 18.9C51.6417 18.9 52.1917 18.6667 52.575 18.2C52.975 17.7167 53.175 17.0583 53.175 16.225C53.175 15.3917 52.975 14.7417 52.575 14.275C52.1917 13.7917 51.6417 13.55 50.925 13.55C50.1917 13.55 49.625 13.7917 49.225 14.275C48.8417 14.7417 48.65 15.3917 48.65 16.225C48.65 17.0583 48.8417 17.7167 49.225 18.2C49.625 18.6667 50.1917 18.9 50.925 18.9ZM51.525 27.95C53.6583 27.95 54.725 27.425 54.725 26.375C54.725 25.9083 54.5417 25.5583 54.175 25.325C53.8083 25.1083 53.2 24.9333 52.35 24.8L49.6 24.4C48.65 24.7833 48.175 25.3667 48.175 26.15C48.175 26.75 48.4667 27.2 49.05 27.5C49.6333 27.8 50.4583 27.95 51.525 27.95ZM58.9744 6.5H62.0744V9.6H58.9744V6.5ZM58.9744 11.5H62.0744V24H58.9744V11.5ZM69.0553 24.25C67.9553 24.25 67.1219 23.9333 66.5553 23.3C65.9886 22.65 65.7053 21.875 65.7053 20.975V14.05H63.9303L64.2053 11.5H65.7053V8.75L68.8053 8.425V11.5H71.5553V14.05H68.8053V19.7C68.8053 20.3667 68.8386 20.8333 68.9053 21.1C68.9886 21.35 69.1469 21.5167 69.3803 21.6C69.6303 21.6667 70.0719 21.7 70.7053 21.7H71.5553L71.2803 24.25H69.0553ZM79.874 11.3C81.4574 11.3 82.6324 11.8167 83.399 12.85C84.1824 13.8667 84.574 15.2667 84.574 17.05V24H81.474V17.275C81.474 16.0917 81.2824 15.225 80.899 14.675C80.5157 14.125 79.9074 13.85 79.074 13.85C78.0907 13.85 77.2824 14.2083 76.649 14.925V24H73.549V5.25H76.649V12.3C77.149 11.9833 77.6574 11.7417 78.174 11.575C78.6907 11.3917 79.2574 11.3 79.874 11.3ZM98.1459 11.5V24H95.2459L95.1959 23.25C94.8126 23.5333 94.3709 23.775 93.8709 23.975C93.3709 24.1583 92.8876 24.25 92.4209 24.25C90.5709 24.25 89.2209 23.7167 88.3709 22.65C87.5376 21.5833 87.1209 20.1083 87.1209 18.225V11.5H90.2209V18.225C90.2209 19.3917 90.4126 20.2583 90.7959 20.825C91.1959 21.375 91.8292 21.65 92.6959 21.65C93.6626 21.65 94.4459 21.3 95.0459 20.6V11.5H98.1459ZM107.54 11.3C108.723 11.3 109.74 11.5917 110.59 12.175C111.44 12.7583 112.082 13.5417 112.515 14.525C112.948 15.5083 113.165 16.5917 113.165 17.775C113.165 18.9583 112.948 20.0417 112.515 21.025C112.082 22.0083 111.44 22.7917 110.59 23.375C109.74 23.9583 108.723 24.25 107.54 24.25C106.223 24.25 105.032 23.8917 103.965 23.175L103.915 24H101.015V5.25H104.115V12.425C105.132 11.675 106.273 11.3 107.54 11.3ZM107.09 21.7C108.007 21.7 108.715 21.3417 109.215 20.625C109.732 19.9083 109.99 18.9583 109.99 17.775C109.99 16.5917 109.732 15.6417 109.215 14.925C108.715 14.2083 108.007 13.85 107.09 13.85C106.04 13.85 105.257 14.2 104.74 14.9C104.223 15.6 103.965 16.5583 103.965 17.775C103.965 18.9917 104.223 19.95 104.74 20.65C105.257 21.35 106.04 21.7 107.09 21.7Z" fill="white"/>
<defs>
<clipPath id="clip0">
<rect width="24" height="24" fill="white" transform="translate(0 6)"/>
</clipPath>
</defs>
</svg>
