<svg width="131" height="30" viewBox="0 0 131 30" fill="none" xmlns="http://www.w3.org/2000/svg">
<path d="M16 8C17.5913 8 19.1174 8.63214 20.2426 9.75736C21.3679 10.8826 22 12.4087 22 14V21H18V14C18 13.4696 17.7893 12.9609 17.4142 12.5858C17.0391 12.2107 16.5304 12 16 12C15.4696 12 14.9609 12.2107 14.5858 12.5858C14.2107 12.9609 14 13.4696 14 14V21H10V14C10 12.4087 10.6321 10.8826 11.7574 9.75736C12.8826 8.63214 14.4087 8 16 8V8Z" stroke="white" stroke-width="2" stroke-linecap="round" stroke-linejoin="round"/>
<path d="M6 9H2V21H6V9Z" stroke="white" stroke-width="2" stroke-linecap="round" stroke-linejoin="round"/>
<path d="M4 6C5.10457 6 6 5.10457 6 4C6 2.89543 5.10457 2 4 2C2.89543 2 2 2.89543 2 4C2 5.10457 2.89543 6 4 6Z" stroke="white" stroke-width="2" stroke-linecap="round" stroke-linejoin="round"/>
<path d="M49.65 24.25C48.5833 24.25 47.7833 23.95 47.25 23.35C46.7167 22.7333 46.45 21.9417 46.45 20.975V5.25H49.55V19.7C49.55 20.3667 49.5833 20.8417 49.65 21.125C49.7333 21.3917 49.8667 21.5583 50.05 21.625C50.25 21.675 50.5833 21.7 51.05 21.7L50.775 24.25H49.65ZM53.0174 6.5H56.1174V9.6H53.0174V6.5ZM53.0174 11.5H56.1174V24H53.0174V11.5ZM65.3232 11.3C66.8732 11.3 68.0482 11.8167 68.8482 12.85C69.6482 13.8833 70.0482 15.275 70.0482 17.025V24H66.9482V17.275C66.9482 16.1083 66.7482 15.25 66.3482 14.7C65.9649 14.1333 65.3399 13.85 64.4732 13.85C63.5232 13.85 62.7399 14.2083 62.1232 14.925V24H59.0232V11.5H61.9232L61.9732 12.375C63.0232 11.6583 64.1399 11.3 65.3232 11.3ZM72.7922 5.25H75.8922V16.625L79.7672 11.5H83.2672L78.7172 17.5L83.3672 24H79.8672L75.8922 18.45V24H72.7922V5.25ZM90.4389 24.25C88.9889 24.25 87.7472 23.9583 86.7139 23.375C85.6972 22.775 84.9305 21.9833 84.4139 21C83.9139 20 83.6639 18.8917 83.6639 17.675C83.6639 16.5083 83.9055 15.4417 84.3889 14.475C84.8722 13.5083 85.5722 12.7417 86.4889 12.175C87.4055 11.5917 88.4972 11.3 89.7639 11.3C90.9305 11.3 91.9139 11.5417 92.7139 12.025C93.5305 12.5083 94.1389 13.1583 94.5389 13.975C94.9555 14.7917 95.1639 15.7083 95.1639 16.725C95.1639 17.225 95.0972 17.7917 94.9639 18.425H86.8889C87.0555 19.525 87.4889 20.35 88.1889 20.9C88.8889 21.4333 89.7305 21.7 90.7139 21.7C92.0639 21.7 93.3139 21.3583 94.4639 20.675L94.6139 23.3C94.0805 23.5833 93.4555 23.8167 92.7389 24C92.0389 24.1667 91.2722 24.25 90.4389 24.25ZM92.0139 16.325C92.0139 15.675 91.8305 15.1 91.4639 14.6C91.0972 14.1 90.5305 13.85 89.7639 13.85C88.9972 13.85 88.3805 14.075 87.9139 14.525C87.4472 14.975 87.1305 15.575 86.9639 16.325H92.0139ZM108.68 5.25V24H105.755L105.705 23.2C105.222 23.55 104.713 23.8167 104.18 24C103.663 24.1667 103.047 24.25 102.33 24.25C101.113 24.25 100.063 23.9583 99.1801 23.375C98.3134 22.7917 97.6551 22.0083 97.2051 21.025C96.7551 20.0417 96.5301 18.9583 96.5301 17.775C96.5301 16.5917 96.7551 15.5083 97.2051 14.525C97.6551 13.5417 98.3134 12.7583 99.1801 12.175C100.063 11.5917 101.113 11.3 102.33 11.3C103.547 11.3 104.63 11.6333 105.58 12.3V5.25H108.68ZM102.78 21.7C103.763 21.7 104.497 21.35 104.98 20.65C105.48 19.95 105.73 18.9917 105.73 17.775C105.73 16.5583 105.48 15.6 104.98 14.9C104.497 14.2 103.763 13.85 102.78 13.85C101.813 13.85 101.055 14.2083 100.505 14.925C99.9717 15.6417 99.7051 16.5917 99.7051 17.775C99.7051 18.9583 99.9717 19.9083 100.505 20.625C101.055 21.3417 101.813 21.7 102.78 21.7ZM111.696 6.5H114.896V24H111.696V6.5ZM124.356 11.3C125.906 11.3 127.081 11.8167 127.881 12.85C128.681 13.8833 129.081 15.275 129.081 17.025V24H125.981V17.275C125.981 16.1083 125.781 15.25 125.381 14.7C124.998 14.1333 124.373 13.85 123.506 13.85C122.556 13.85 121.773 14.2083 121.156 14.925V24H118.056V11.5H120.956L121.006 12.375C122.056 11.6583 123.173 11.3 124.356 11.3Z" fill="white"/>
</svg>
