<svg width="171" height="31" viewBox="0 0 171 31" fill="none" xmlns="http://www.w3.org/2000/svg">
<path d="M4 22.5C4 21.837 4.26339 21.2011 4.73223 20.7322C5.20107 20.2634 5.83696 20 6.5 20H20" stroke="white" stroke-width="2" stroke-linecap="round" stroke-linejoin="round"/>
<path d="M6.5 5H20V25H6.5C5.83696 25 5.20107 24.7366 4.73223 24.2678C4.26339 23.7989 4 23.163 4 22.5V7.5C4 6.83696 4.26339 6.20107 4.73223 5.73223C5.20107 5.26339 5.83696 5 6.5 5V5Z" stroke="white" stroke-width="2" stroke-linecap="round" stroke-linejoin="round"/>
<path d="M59.4 24L57.9 12.275L53.425 20.325L48.925 12.3L47.425 24H44.1L46.525 6.5H49.15L53.425 14.475L57.675 6.5H60.3L62.725 24H59.4ZM68.4398 23.175L63.2398 11.5H66.6898L69.8898 19.55L73.1398 11.5H76.5898L68.7648 30.05H65.6648L68.4398 23.175ZM93.8578 14.425C96.0745 15.1417 97.1828 16.675 97.1828 19.025C97.1828 20.5917 96.6745 21.8167 95.6578 22.7C94.6411 23.5667 93.2495 24 91.4828 24H84.1828V6.5H90.7828C94.1161 6.5 95.7828 7.90833 95.7828 10.725C95.7828 12.4583 95.1411 13.6917 93.8578 14.425ZM87.3828 13.375H90.3078C91.0911 13.375 91.6745 13.2167 92.0578 12.9C92.4411 12.5667 92.6328 12.0583 92.6328 11.375C92.6328 10.6583 92.4411 10.1417 92.0578 9.825C91.6745 9.50833 91.0911 9.35 90.3078 9.35H87.3828V13.375ZM91.0078 21.15C91.9411 21.15 92.6495 20.9667 93.1328 20.6C93.6328 20.2167 93.8828 19.575 93.8828 18.675C93.8828 17.7917 93.6245 17.1667 93.1078 16.8C92.6078 16.4167 91.9078 16.225 91.0078 16.225H87.3828V21.15H91.0078ZM105.032 24.25C103.716 24.25 102.574 23.9583 101.607 23.375C100.641 22.7917 99.8989 22.0083 99.3822 21.025C98.8656 20.0417 98.6072 18.9583 98.6072 17.775C98.6072 16.5917 98.8656 15.5 99.3822 14.5C99.8989 13.5 100.641 12.7083 101.607 12.125C102.574 11.5417 103.716 11.25 105.032 11.25C106.349 11.25 107.491 11.5417 108.457 12.125C109.424 12.7083 110.166 13.5 110.682 14.5C111.199 15.5 111.457 16.5917 111.457 17.775C111.457 18.9583 111.199 20.0417 110.682 21.025C110.166 22.0083 109.424 22.7917 108.457 23.375C107.491 23.9583 106.349 24.25 105.032 24.25ZM105.032 21.7C106.049 21.7 106.841 21.3417 107.407 20.625C107.991 19.9083 108.282 18.9583 108.282 17.775C108.282 16.575 107.991 15.6167 107.407 14.9C106.841 14.1667 106.049 13.8 105.032 13.8C104.016 13.8 103.216 14.1667 102.632 14.9C102.066 15.6167 101.782 16.575 101.782 17.775C101.782 18.9583 102.066 19.9083 102.632 20.625C103.216 21.3417 104.016 21.7 105.032 21.7ZM119.29 24.25C117.973 24.25 116.832 23.9583 115.865 23.375C114.898 22.7917 114.157 22.0083 113.64 21.025C113.123 20.0417 112.865 18.9583 112.865 17.775C112.865 16.5917 113.123 15.5 113.64 14.5C114.157 13.5 114.898 12.7083 115.865 12.125C116.832 11.5417 117.973 11.25 119.29 11.25C120.607 11.25 121.748 11.5417 122.715 12.125C123.682 12.7083 124.423 13.5 124.94 14.5C125.457 15.5 125.715 16.5917 125.715 17.775C125.715 18.9583 125.457 20.0417 124.94 21.025C124.423 22.0083 123.682 22.7917 122.715 23.375C121.748 23.9583 120.607 24.25 119.29 24.25ZM119.29 21.7C120.307 21.7 121.098 21.3417 121.665 20.625C122.248 19.9083 122.54 18.9583 122.54 17.775C122.54 16.575 122.248 15.6167 121.665 14.9C121.098 14.1667 120.307 13.8 119.29 13.8C118.273 13.8 117.473 14.1667 116.89 14.9C116.323 15.6167 116.04 16.575 116.04 17.775C116.04 18.9583 116.323 19.9083 116.89 20.625C117.473 21.3417 118.273 21.7 119.29 21.7ZM127.848 5.25H130.948V16.625L134.823 11.5H138.323L133.773 17.5L138.423 24H134.923L130.948 18.45V24H127.848V5.25ZM143.207 24.25C142.14 24.25 141.34 23.95 140.807 23.35C140.273 22.7333 140.007 21.9417 140.007 20.975V5.25H143.107V19.7C143.107 20.3667 143.14 20.8417 143.207 21.125C143.29 21.3917 143.423 21.5583 143.607 21.625C143.807 21.675 144.14 21.7 144.607 21.7L144.332 24.25H143.207ZM146.574 6.5H149.674V9.6H146.574V6.5ZM146.574 11.5H149.674V24H146.574V11.5ZM156.13 24.25C155.33 24.25 154.597 24.175 153.93 24.025C153.28 23.875 152.605 23.6417 151.905 23.325L152.18 20.675C152.88 21.0917 153.53 21.4083 154.13 21.625C154.747 21.825 155.38 21.925 156.03 21.925C157.297 21.925 157.93 21.5083 157.93 20.675C157.93 20.225 157.763 19.8833 157.43 19.65C157.097 19.4 156.497 19.1083 155.63 18.775C154.397 18.325 153.488 17.8167 152.905 17.25C152.322 16.6667 152.03 15.8833 152.03 14.9C152.03 13.8167 152.447 12.9417 153.28 12.275C154.113 11.5917 155.238 11.25 156.655 11.25C158.072 11.25 159.363 11.575 160.53 12.225L160.255 14.875C159.622 14.4417 159.022 14.1083 158.455 13.875C157.905 13.6417 157.322 13.525 156.705 13.525C156.172 13.525 155.755 13.6333 155.455 13.85C155.172 14.0667 155.03 14.375 155.03 14.775C155.03 15.0917 155.113 15.35 155.28 15.55C155.463 15.75 155.713 15.9333 156.03 16.1C156.347 16.25 156.872 16.4667 157.605 16.75C158.822 17.2167 159.697 17.7333 160.23 18.3C160.763 18.85 161.03 19.5917 161.03 20.525C161.03 21.7083 160.605 22.625 159.755 23.275C158.905 23.925 157.697 24.25 156.13 24.25ZM167.226 24.25C166.126 24.25 165.293 23.9333 164.726 23.3C164.16 22.65 163.876 21.875 163.876 20.975V14.05H162.101L162.376 11.5H163.876V8.75L166.976 8.425V11.5H169.726V14.05H166.976V19.7C166.976 20.3667 167.01 20.8333 167.076 21.1C167.16 21.35 167.318 21.5167 167.551 21.6C167.801 21.6667 168.243 21.7 168.876 21.7H169.726L169.451 24.25H167.226Z" fill="white"/>
</svg>
