<svg width="121" height="76" viewBox="0 0 121 76" fill="none" xmlns="http://www.w3.org/2000/svg">
<path d="M46.9859 73.5451C47.0054 73.5402 47.0258 73.5397 47.0455 73.5437C47.0652 73.5477 47.0838 73.5561 47.0999 73.5682C47.116 73.5803 47.1291 73.5959 47.1385 73.6137C47.1478 73.6316 47.153 73.6513 47.1537 73.6715C47.1537 74.7365 46.0712 75.8306 44.9231 75.9658C43.6085 76.1212 42.5033 75.6348 41.6239 74.715C39.6053 72.6026 38.9581 70.096 39.7063 67.2608C40.1264 65.6664 40.9679 64.288 41.9898 63.0082C43.4281 61.1989 45.1578 59.698 46.9997 58.3209C51.5416 54.9286 56.5881 52.5167 61.8176 50.4169C70.0005 47.132 78.456 44.9033 87.2155 43.9203C95.3581 43.0056 103.378 43.5666 111.186 46.2627C111.439 46.3524 111.7 46.4459 111.959 46.5344C111.986 46.5412 112.014 46.5412 112.041 46.5344C112.553 43.6462 113.064 40.7643 113.591 37.7852C113.597 37.7575 113.594 37.7287 113.582 37.703C113.57 37.6772 113.551 37.6558 113.527 37.6418C113.502 37.6277 113.474 37.6218 113.446 37.6249C113.418 37.628 113.391 37.6398 113.37 37.6588C113.29 37.7308 113.215 37.7965 113.139 37.8597C111.459 39.2709 109.792 40.6822 108.101 42.072C107.704 42.3861 107.265 42.6414 106.796 42.83C104.88 43.6196 102.976 42.5546 102.606 40.5116C102.576 40.3423 102.551 40.173 102.517 39.9507C102.513 39.9276 102.503 39.9059 102.489 39.8876C102.475 39.8693 102.456 39.8551 102.434 39.8463C102.412 39.8375 102.389 39.8345 102.366 39.8375C102.343 39.8405 102.321 39.8495 102.302 39.8635C102.142 39.9898 102.013 40.0871 101.876 40.173C100.598 40.9728 99.3713 41.8875 98.0176 42.5331C96.5402 43.2381 95.0376 42.854 94.0851 41.7902C93.8508 41.5049 93.6338 41.2058 93.4353 40.8944C93.4159 40.8658 93.3859 40.8459 93.352 40.839C93.318 40.8322 93.2827 40.8389 93.2537 40.8578C93.1098 40.9488 92.9736 41.0372 92.831 41.1168C92.2847 41.4289 91.7574 41.7902 91.1808 42.0341C89.0587 42.9273 87.1865 41.9873 86.5859 39.7662C86.5582 39.6601 86.5254 39.5565 86.4837 39.4263C86.4768 39.4049 86.4647 39.3856 86.4485 39.3701C86.4322 39.3546 86.4124 39.3433 86.3907 39.3374C86.369 39.3315 86.3462 39.3312 86.3244 39.3363C86.3025 39.3415 86.2823 39.352 86.2655 39.367C85.8075 39.7877 85.4013 40.1793 84.9685 40.5382C84.4273 40.9854 83.8961 41.4567 83.3284 41.8572C80.6058 43.7523 78.3336 42.5925 78.2049 39.2735C78.1431 37.6816 78.4989 36.1377 78.8004 34.5874C78.8774 34.1958 78.9884 33.8079 79.0439 33.4137C79.0718 33.2115 79.0466 33.0055 78.9707 32.8161C78.6162 31.9961 78.7184 31.5173 79.2723 30.8565C79.5953 30.4841 79.8387 30.0494 79.9876 29.5792C81.3325 24.8856 82.5235 20.1402 84.421 15.6298C85.2499 13.6601 86.2731 11.7612 87.3417 9.90771C87.8467 9.05769 88.5148 8.31614 89.3073 7.72577C91.558 6.03658 94.2819 7.2621 94.6402 10.0543C94.8496 11.6967 94.538 13.2848 94.1797 14.8692C93.5211 17.7915 92.6657 20.6519 91.3473 23.3531C89.8523 26.4383 87.8097 29.0587 84.8626 30.9159C84.6582 31.0423 84.4122 31.233 84.3579 31.4428C83.9554 32.8325 83.5896 34.2299 83.2161 35.626L83.5946 35.8534C83.6388 35.8117 83.6804 35.77 83.7208 35.727C84.6645 34.7075 85.5956 33.6778 86.5431 32.6632C86.8595 32.2975 87.2102 31.9628 87.5902 31.6639C88.4443 31.0448 89.383 30.9235 90.309 31.487C91.2351 32.0505 91.5707 32.9374 91.4167 33.9823C91.2981 34.7706 91.1076 35.5476 91.0206 36.3828C91.0178 36.4092 91.0229 36.436 91.0352 36.4596C91.0475 36.4832 91.0665 36.5026 91.0898 36.5155C91.1132 36.5283 91.1398 36.5339 91.1663 36.5317C91.1928 36.5294 91.218 36.5194 91.2388 36.5028C91.3249 36.4358 91.402 36.3581 91.4685 36.2716C92.3339 35.0865 93.1902 33.8938 94.0371 32.6936C94.3021 32.3145 94.4913 31.8824 94.7765 31.5224C95.5814 30.5003 96.8708 30.216 97.9305 30.7858C98.9676 31.3404 99.4647 32.5546 99.0887 33.77C98.8717 34.4699 98.55 35.1383 98.2901 35.8256C98.2263 35.9896 98.1921 36.1638 98.1892 36.3398C98.1895 36.3651 98.1969 36.3899 98.2106 36.4112C98.2243 36.4325 98.2437 36.4495 98.2666 36.4603C98.2895 36.4711 98.3149 36.4752 98.3401 36.4723C98.3652 36.4693 98.389 36.4593 98.4087 36.4434C98.5134 36.3575 98.6181 36.2728 98.7178 36.1831C100.736 34.3739 102.142 32.0985 103.484 29.7801C103.685 29.4339 103.87 29.0776 104.101 28.7529C104.941 27.5691 106.333 27.161 107.542 27.7258C108.75 28.2905 109.308 29.6209 108.97 31.0334C108.696 32.1705 108.441 33.3227 108.193 34.4725C108.164 34.6134 108.145 34.756 108.136 34.8995L108.617 35.0928C108.752 34.9311 108.887 34.7681 109.027 34.6102C110.226 33.2558 111.411 31.8875 112.639 30.5596C113.226 29.8992 113.874 29.2948 114.573 28.7542C116.803 27.1029 119.436 28.1869 119.906 30.9197C120.167 32.4485 119.841 33.9406 119.56 35.4289C118.944 38.6746 118.306 41.9166 117.676 45.1572C117.263 47.2874 117.881 49.1307 119.15 50.8426C119.537 51.3644 119.877 52.0151 119.966 52.6443C120.236 54.5331 118.412 55.9456 116.596 55.3177C116.239 55.193 115.904 55.0108 115.605 54.7782C111.897 51.8546 107.603 50.2855 103.054 49.3101C96.1087 47.8205 89.1874 48.1566 82.2686 49.5426C72.5276 51.4946 63.2697 54.7959 54.5695 59.583C52.1724 60.9033 49.9583 62.5849 47.7454 64.2185C46.2622 65.3067 45.0473 66.7203 44.1939 68.3512C43.2855 70.0922 43.4937 71.7207 44.667 73.2507C45.2549 74.0189 45.5577 74.0795 46.4509 73.7018C46.625 73.636 46.8038 73.5836 46.9859 73.5451ZM87.0389 23.156L87.0553 23.1623C87.0718 23.1683 87.0894 23.171 87.107 23.1702C87.1246 23.1694 87.1419 23.1651 87.1579 23.1576C87.1738 23.1501 87.1881 23.1395 87.1999 23.1264C87.2118 23.1133 87.2209 23.0981 87.2269 23.0814C87.7845 21.5459 88.3417 20.0105 88.8985 18.475C88.9103 18.4415 88.9085 18.4046 88.8933 18.3725C88.8782 18.3403 88.8511 18.3154 88.8178 18.3032C88.7845 18.2909 88.7477 18.2925 88.7155 18.3074C88.6833 18.3223 88.6584 18.3494 88.6462 18.3828L86.9594 22.9841C86.9472 23.0175 86.9487 23.0543 86.9636 23.0865C86.9785 23.1188 87.0056 23.1437 87.0389 23.156Z" fill="white"/>
<path d="M20.244 51.8503C18.3919 52.1712 16.6635 52.5211 14.9199 52.7625C12.22 53.1415 9.51509 53.2501 6.85558 52.458C1.49491 50.861 -0.434124 46.3417 0.0793593 41.8806C0.558779 37.7113 2.45375 34.1964 5.12588 31.0657C9.44696 26.0019 14.8026 22.5793 21.3164 21.0846C23.3022 20.6273 25.2918 20.6652 27.1476 21.6683C27.6599 21.945 28.1191 22.3177 28.5947 22.6412C31.6946 17.9412 36.3866 15.451 41.3145 13.4889C41.3675 12.3405 41.2855 11.2148 41.4924 10.1484C41.997 7.53188 43.5703 5.59379 45.715 4.09411C48.7808 1.94629 52.2427 0.847109 55.8951 0.282358C58.2784 -0.0865617 60.6704 -0.138362 63.0385 0.4087C63.6317 0.548211 64.2086 0.750221 64.7594 1.01135C67.5513 2.33037 68.683 4.90902 67.8011 7.87301C67.1527 10.0474 65.8658 11.825 64.3216 13.4384C63.9734 13.801 63.6012 14.1421 63.2126 14.5211C63.286 14.6284 63.3661 14.7309 63.4523 14.8282C66.2708 17.5951 66.8284 20.8623 65.5554 24.5123C64.8527 26.5338 63.6693 28.2647 62.2815 29.8654C59.8844 32.6235 57.0773 34.8926 54.0254 36.8585C44.837 42.7789 35.0379 47.3954 24.5764 50.5755C24.0049 50.7498 23.7223 51.0303 23.5507 51.6001C23.0234 53.355 22.4506 55.0947 22.4821 56.9583C22.4846 57.2525 22.5099 57.5461 22.5578 57.8364C22.8556 59.547 23.6239 60.2369 25.3624 60.3114C27.2044 60.3847 28.9442 59.8793 30.6222 59.1996C32.2535 58.5401 33.8393 57.7681 35.4441 57.0442C35.553 56.9807 35.668 56.9282 35.7873 56.8875C35.9581 56.86 36.1304 56.8427 36.3033 56.8357C36.2251 57.0063 36.1923 57.2375 36.0611 57.3411C33.8317 59.0354 31.5192 60.602 28.9114 61.6658C27.405 62.2798 25.8633 62.7448 24.2017 62.6146C21.9914 62.4415 20.4433 61.1882 19.8302 59.0404C19.2322 56.9469 19.5034 54.8711 20.0055 52.8054C20.0775 52.5009 20.1557 52.2028 20.244 51.8503ZM2.6493 42.2811C2.62911 46.2937 4.32979 48.6589 7.5091 49.4687C8.73196 49.7691 9.99013 49.9005 11.2486 49.8591C14.6045 49.7656 17.8658 49.0164 21.0893 48.1383C21.2282 48.086 21.3554 48.0067 21.4637 47.905C21.5719 47.8033 21.6591 47.6813 21.7201 47.5458C22.1137 46.6399 22.4683 45.7163 22.7925 44.7827C24.1803 40.7751 25.6223 36.7801 26.9205 32.741C27.5366 30.8967 27.7416 28.9397 27.5211 27.0076C27.2688 24.9621 26.2241 23.8313 24.174 23.6216C23.4436 23.5432 22.7053 23.5859 21.9888 23.7479C14.4935 25.5331 8.66223 29.6734 4.63763 36.271C3.39871 38.3064 2.69093 40.5565 2.6493 42.2811ZM34.8209 43.4182C35.1401 43.3083 35.2978 43.2628 35.4517 43.1996C40.5314 41.0766 45.4463 38.5782 50.156 35.7252C53.6381 33.614 56.9297 31.2552 59.6485 28.18C61.0363 26.6083 62.2361 24.909 62.7735 22.8395C63.3539 20.6058 62.8228 18.6879 61.0779 17.1276C60.7209 16.8079 60.4622 16.77 60.0535 17.0707C56.9423 19.3563 53.5876 21.2236 50.0942 22.8547C49.6327 23.0836 49.2356 23.424 48.9385 23.8452C45.6343 28.5401 42.3869 33.2729 39.0637 37.9539C37.768 39.7833 36.3184 41.5079 34.8297 43.4169L34.8209 43.4182ZM25.2539 46.9482C26.4928 46.53 27.6119 46.127 28.7474 45.777C29.5624 45.5243 30.1566 45.2261 30.4809 44.2609C30.8278 43.2337 31.5646 42.3266 32.1841 41.403C35.54 36.41 38.8976 31.422 42.2569 26.439C42.3743 26.2647 42.4676 26.0726 42.6114 25.8199C38.5616 26.9457 34.7275 28.5262 30.5162 27.9905C30.2348 34.6715 27.3684 40.6222 25.2628 46.9469L25.2539 46.9482ZM31.7173 24.3847C32.0188 24.4036 32.1841 24.4289 32.3481 24.4213C32.7463 24.4154 33.1439 24.3871 33.5391 24.3367C37.6179 23.6709 41.5277 22.4036 45.3807 20.9507C45.6839 20.8167 45.9395 20.5938 46.1137 20.3114C47.1117 18.7296 48.0781 17.1276 49.0521 15.5306C49.153 15.3664 49.235 15.1895 49.3473 14.9785C49.2534 14.9634 49.1584 14.9567 49.0634 14.9583C44.3815 15.7694 39.9557 17.2565 35.9967 19.9589C34.619 20.8989 33.3473 21.9577 32.3468 23.3108C32.1191 23.6579 31.9089 24.0163 31.7173 24.3847ZM43.1855 12.8231C43.3327 12.8121 43.4792 12.7935 43.6245 12.7675C46.0708 12.0638 48.5449 11.542 51.0959 11.3601C51.3243 11.3436 51.6157 11.0897 51.7381 10.8686C52.9291 8.72077 54.091 6.55147 55.258 4.38722C55.3438 4.22803 55.4056 4.05621 55.523 3.78583C51.9904 4.45545 48.6811 5.38912 45.9346 7.70245C44.8979 8.57435 44.1137 9.70872 43.6636 10.9873C43.4693 11.5496 43.3608 12.1446 43.1855 12.8244V12.8231ZM58.918 3.54578C59.0694 6.62475 57.3082 8.96082 56.3102 11.4902C57.5365 11.8831 58.7237 12.2836 59.9273 12.6273C60.1115 12.6803 60.4206 12.5477 60.5783 12.3999C61.2381 11.7858 61.8904 11.1579 62.4935 10.487C63.4271 9.44597 64.1777 8.28236 64.5537 6.91533C64.9019 5.65191 64.5285 4.78267 63.3501 4.20908C61.9308 3.52178 60.4017 3.52051 58.918 3.54578ZM56.8149 15.288L56.7606 15.0682C56.1033 14.9621 55.4473 14.8471 54.7887 14.7599C54.7189 14.7531 54.6485 14.7625 54.5829 14.7872C54.5172 14.812 54.4582 14.8515 54.4102 14.9027C53.9182 15.7151 53.4514 16.5452 52.9783 17.3651L53.1196 17.4915L56.8149 15.288Z" fill="white"/>
<path d="M63.9107 43.6916C63.6306 43.8735 63.4275 44.0062 63.2218 44.1376C61.3735 45.3138 59.4369 46.2399 57.1849 46.2854C56.1756 46.3056 55.2925 46.0138 54.5557 45.2747C54.4358 45.1483 54.1608 45.1306 53.969 45.1547C53.6183 45.1976 53.2802 45.3568 52.9307 45.3846C52.1434 45.4465 51.5215 45.0776 51.2906 44.4724C51.0483 43.8407 51.2414 43.1749 51.8823 42.691C52.3995 42.3006 52.9925 42.0087 53.5073 41.6158C53.8365 41.3631 54.1923 41.0561 54.3538 40.6922C55.3341 38.485 56.5983 36.4812 58.5285 35.0068C59.2857 34.447 60.1273 34.0119 61.0215 33.7181C61.9526 33.401 62.8761 33.6335 63.5132 34.4673C64.1504 35.3012 64.1529 36.2513 63.5889 37.0662C62.9354 38.01 62.1482 38.8691 61.3533 39.7004C60.7023 40.3814 59.9517 40.9639 59.2969 41.6979C59.486 41.6214 59.6673 41.5266 59.8381 41.4149C60.773 40.6695 61.7545 39.9683 62.6137 39.1407C63.9144 37.8849 65.1029 36.5141 66.386 35.2393C66.82 34.8085 67.3524 34.3941 67.9176 34.1995C68.8247 33.89 69.6839 34.178 70.2756 34.9576C70.9367 35.828 70.8357 36.7377 70.3816 37.6903C69.9122 38.6708 69.5287 39.6916 69.1199 40.6998C69.0469 40.8953 69.0407 41.1094 69.1023 41.3088C69.3127 41.0938 69.5111 40.8673 69.6965 40.6303C70.726 39.1685 71.7328 37.6903 72.7711 36.2336C73.1334 35.6922 73.5479 35.1878 74.0088 34.7276C74.7746 34.0075 75.7031 33.7952 76.691 34.2425C77.6536 34.6771 78.133 35.4983 78.0914 36.5166C78.0561 37.3922 77.8504 38.2627 77.6965 39.1306C77.5375 40.0218 77.3613 40.9091 77.1679 41.7927C77.077 42.202 77.1565 42.4522 77.6095 42.4977C77.86 42.5132 78.1091 42.5461 78.3551 42.5962C78.5216 42.6379 78.7613 42.7226 78.8004 42.8388C78.8395 42.955 78.7197 43.1888 78.6049 43.3088C77.0909 44.9083 75.1644 44.7895 73.6416 42.955C73.4776 43.1395 73.3161 43.3151 73.1622 43.4983C72.1277 44.7377 70.9619 45.8306 69.5035 46.5394C68.9044 46.8392 68.2679 47.0572 67.611 47.1875C65.7728 47.5223 64.2135 46.3107 64.0002 44.4522C63.9649 44.2374 63.9422 44.015 63.9107 43.6916Z" fill="white"/>
</svg>
