<svg width="106" height="26" viewBox="0 0 106 26" fill="none" xmlns="http://www.w3.org/2000/svg">
<path d="M16 8C17.5913 8 19.1174 8.63214 20.2426 9.75736C21.3679 10.8826 22 12.4087 22 14V21H18V14C18 13.4696 17.7893 12.9609 17.4142 12.5858C17.0391 12.2107 16.5304 12 16 12C15.4696 12 14.9609 12.2107 14.5858 12.5858C14.2107 12.9609 14 13.4696 14 14V21H10V14C10 12.4087 10.6321 10.8826 11.7574 9.75736C12.8826 8.63214 14.4087 8 16 8V8Z" stroke="white" stroke-width="2" stroke-linecap="round" stroke-linejoin="round"/>
<path d="M6 9H2V21H6V9Z" stroke="white" stroke-width="2" stroke-linecap="round" stroke-linejoin="round"/>
<path d="M4 6C5.10457 6 6 5.10457 6 4C6 2.89543 5.10457 2 4 2C2.89543 2 2 2.89543 2 4C2 5.10457 2.89543 6 4 6Z" stroke="white" stroke-width="2" stroke-linecap="round" stroke-linejoin="round"/>
<path d="M50.162 22.17C49.4367 22.17 48.8927 21.966 48.53 21.558C48.1673 21.1387 47.986 20.6003 47.986 19.943V9.25H50.094V19.076C50.094 19.5293 50.1167 19.8523 50.162 20.045C50.2187 20.2263 50.3093 20.3397 50.434 20.385C50.57 20.419 50.7967 20.436 51.114 20.436L50.927 22.17H50.162ZM52.4518 10.1H54.5598V12.208H52.4518V10.1ZM52.4518 13.5H54.5598V22H52.4518V13.5ZM60.8198 13.364C61.8738 13.364 62.6728 13.7153 63.2168 14.418C63.7608 15.1207 64.0328 16.067 64.0328 17.257V22H61.9248V17.427C61.9248 16.6337 61.7888 16.05 61.5168 15.676C61.2561 15.2907 60.8311 15.098 60.2418 15.098C59.5958 15.098 59.0631 15.3417 58.6438 15.829V22H56.5358V13.5H58.5078L58.5418 14.095C59.2558 13.6077 60.0151 13.364 60.8198 13.364ZM65.8987 9.25H68.0067V16.985L70.6417 13.5H73.0217L69.9277 17.58L73.0897 22H70.7097L68.0067 18.226V22H65.8987V9.25ZM77.8984 22.17C76.9124 22.17 76.0681 21.9717 75.3654 21.575C74.6741 21.167 74.1528 20.6287 73.8014 19.96C73.4614 19.28 73.2914 18.5263 73.2914 17.699C73.2914 16.9057 73.4558 16.1803 73.7844 15.523C74.1131 14.8657 74.5891 14.3443 75.2124 13.959C75.8358 13.5623 76.5781 13.364 77.4394 13.364C78.2328 13.364 78.9014 13.5283 79.4454 13.857C80.0008 14.1857 80.4144 14.6277 80.6864 15.183C80.9698 15.7383 81.1114 16.3617 81.1114 17.053C81.1114 17.393 81.0661 17.7783 80.9754 18.209H75.4844C75.5978 18.957 75.8924 19.518 76.3684 19.892C76.8444 20.2547 77.4168 20.436 78.0854 20.436C79.0034 20.436 79.8534 20.2037 80.6354 19.739L80.7374 21.524C80.3748 21.7167 79.9498 21.8753 79.4624 22C78.9864 22.1133 78.4651 22.17 77.8984 22.17ZM78.9694 16.781C78.9694 16.339 78.8448 15.948 78.5954 15.608C78.3461 15.268 77.9608 15.098 77.4394 15.098C76.9181 15.098 76.4988 15.251 76.1814 15.557C75.8641 15.863 75.6488 16.271 75.5354 16.781H78.9694ZM90.3025 9.25V22H88.3135L88.2795 21.456C87.9508 21.694 87.6051 21.8753 87.2425 22C86.8911 22.1133 86.4718 22.17 85.9845 22.17C85.1571 22.17 84.4431 21.9717 83.8425 21.575C83.2531 21.1783 82.8055 20.6457 82.4995 19.977C82.1935 19.3083 82.0405 18.5717 82.0405 17.767C82.0405 16.9623 82.1935 16.2257 82.4995 15.557C82.8055 14.8883 83.2531 14.3557 83.8425 13.959C84.4431 13.5623 85.1571 13.364 85.9845 13.364C86.8118 13.364 87.5485 13.5907 88.1945 14.044V9.25H90.3025ZM86.2905 20.436C86.9591 20.436 87.4578 20.198 87.7865 19.722C88.1265 19.246 88.2965 18.5943 88.2965 17.767C88.2965 16.9397 88.1265 16.288 87.7865 15.812C87.4578 15.336 86.9591 15.098 86.2905 15.098C85.6331 15.098 85.1175 15.3417 84.7435 15.829C84.3808 16.3163 84.1995 16.9623 84.1995 17.767C84.1995 18.5717 84.3808 19.2177 84.7435 19.705C85.1175 20.1923 85.6331 20.436 86.2905 20.436ZM92.3529 10.1H94.5289V22H92.3529V10.1ZM100.962 13.364C102.016 13.364 102.815 13.7153 103.359 14.418C103.903 15.1207 104.175 16.067 104.175 17.257V22H102.067V17.427C102.067 16.6337 101.931 16.05 101.659 15.676C101.399 15.2907 100.974 15.098 100.384 15.098C99.7384 15.098 99.2057 15.3417 98.7864 15.829V22H96.6784V13.5H98.6504L98.6844 14.095C99.3984 13.6077 100.158 13.364 100.962 13.364Z" fill="white"/>
</svg>
