<svg width="129" height="25" viewBox="0 0 129 25" fill="none" xmlns="http://www.w3.org/2000/svg">
<path d="M42.309 8.1H46.763C47.8963 8.1 48.905 8.338 49.789 8.814C50.6843 9.29 51.3813 9.97567 51.88 10.871C52.3787 11.7663 52.628 12.826 52.628 14.05C52.628 15.274 52.3787 16.3337 51.88 17.229C51.3813 18.1243 50.6843 18.81 49.789 19.286C48.905 19.762 47.8963 20 46.763 20H42.309V8.1ZM46.763 18.062C47.8963 18.062 48.7577 17.7107 49.347 17.008C49.9477 16.294 50.248 15.308 50.248 14.05C50.248 12.792 49.9477 11.8117 49.347 11.109C48.7577 10.395 47.8963 10.038 46.763 10.038H44.485V18.062H46.763ZM58.2187 20.17C57.2327 20.17 56.3884 19.9717 55.6857 19.575C54.9944 19.167 54.4731 18.6287 54.1217 17.96C53.7817 17.28 53.6117 16.5263 53.6117 15.699C53.6117 14.9057 53.7761 14.1803 54.1047 13.523C54.4334 12.8657 54.9094 12.3443 55.5327 11.959C56.1561 11.5623 56.8984 11.364 57.7597 11.364C58.5531 11.364 59.2217 11.5283 59.7657 11.857C60.3211 12.1857 60.7347 12.6277 61.0067 13.183C61.2901 13.7383 61.4317 14.3617 61.4317 15.053C61.4317 15.393 61.3864 15.7783 61.2957 16.209H55.8047C55.9181 16.957 56.2127 17.518 56.6887 17.892C57.1647 18.2547 57.7371 18.436 58.4057 18.436C59.3237 18.436 60.1737 18.2037 60.9557 17.739L61.0577 19.524C60.6951 19.7167 60.2701 19.8753 59.7827 20C59.3067 20.1133 58.7854 20.17 58.2187 20.17ZM59.2897 14.781C59.2897 14.339 59.1651 13.948 58.9157 13.608C58.6664 13.268 58.2811 13.098 57.7597 13.098C57.2384 13.098 56.8191 13.251 56.5017 13.557C56.1844 13.863 55.9691 14.271 55.8557 14.781H59.2897ZM65.2848 20.17C64.7408 20.17 64.2421 20.119 63.7888 20.017C63.3468 19.915 62.8878 19.7563 62.4118 19.541L62.5988 17.739C63.0748 18.0223 63.5168 18.2377 63.9248 18.385C64.3441 18.521 64.7748 18.589 65.2168 18.589C66.0781 18.589 66.5088 18.3057 66.5088 17.739C66.5088 17.433 66.3954 17.2007 66.1688 17.042C65.9421 16.872 65.5341 16.6737 64.9448 16.447C64.1061 16.141 63.4884 15.7953 63.0918 15.41C62.6951 15.0133 62.4968 14.4807 62.4968 13.812C62.4968 13.0753 62.7801 12.4803 63.3468 12.027C63.9134 11.5623 64.6784 11.33 65.6418 11.33C66.6051 11.33 67.4834 11.551 68.2768 11.993L68.0898 13.795C67.6591 13.5003 67.2511 13.2737 66.8658 13.115C66.4918 12.9563 66.0951 12.877 65.6758 12.877C65.3131 12.877 65.0298 12.9507 64.8258 13.098C64.6331 13.2453 64.5368 13.455 64.5368 13.727C64.5368 13.9423 64.5934 14.118 64.7068 14.254C64.8314 14.39 65.0014 14.5147 65.2168 14.628C65.4321 14.73 65.7891 14.8773 66.2878 15.07C67.1151 15.3873 67.7101 15.7387 68.0728 16.124C68.4354 16.498 68.6168 17.0023 68.6168 17.637C68.6168 18.4417 68.3278 19.065 67.7498 19.507C67.1718 19.949 66.3501 20.17 65.2848 20.17ZM70.0592 8.1H72.1672V10.208H70.0592V8.1ZM70.0592 11.5H72.1672V20H70.0592V11.5ZM77.5092 24.284C76.3079 24.284 75.3502 24.063 74.6362 23.621C73.9222 23.1903 73.5652 22.601 73.5652 21.853C73.5652 21.037 74.0242 20.3683 74.9422 19.847C74.4436 19.541 74.1942 19.1387 74.1942 18.64C74.1942 18.3793 74.2679 18.147 74.4152 17.943C74.5739 17.739 74.7836 17.5747 75.0442 17.45C74.6136 17.144 74.2849 16.753 74.0582 16.277C73.8429 15.801 73.7352 15.2797 73.7352 14.713C73.7352 14.0897 73.8712 13.523 74.1432 13.013C74.4152 12.4917 74.8119 12.0837 75.3332 11.789C75.8546 11.483 76.4722 11.33 77.1862 11.33C77.9342 11.33 78.5802 11.5113 79.1242 11.874C79.3169 11.772 79.5719 11.687 79.8892 11.619C80.2179 11.5397 80.5692 11.5 80.9432 11.5H81.4872L81.3512 12.826H80.5862C80.3936 12.826 80.2349 12.8317 80.1102 12.843C80.4502 13.3643 80.6202 13.9877 80.6202 14.713C80.6202 15.3363 80.4842 15.9087 80.2122 16.43C79.9516 16.94 79.5606 17.348 79.0392 17.654C78.5179 17.9487 77.9002 18.096 77.1862 18.096C76.9256 18.096 76.6252 18.0563 76.2852 17.977C76.1606 18.0337 76.0982 18.1243 76.0982 18.249C76.0982 18.3963 76.1832 18.5153 76.3532 18.606C76.5346 18.6853 76.8349 18.7533 77.2542 18.81L78.7162 18.997C80.6656 19.2577 81.6402 20.0793 81.6402 21.462C81.6402 22.3233 81.2719 23.009 80.5352 23.519C79.8099 24.029 78.8012 24.284 77.5092 24.284ZM77.1862 16.532C77.6736 16.532 78.0476 16.3733 78.3082 16.056C78.5802 15.7273 78.7162 15.2797 78.7162 14.713C78.7162 14.1463 78.5802 13.7043 78.3082 13.387C78.0476 13.0583 77.6736 12.894 77.1862 12.894C76.6876 12.894 76.3022 13.0583 76.0302 13.387C75.7696 13.7043 75.6392 14.1463 75.6392 14.713C75.6392 15.2797 75.7696 15.7273 76.0302 16.056C76.3022 16.3733 76.6876 16.532 77.1862 16.532ZM77.5942 22.686C79.0449 22.686 79.7702 22.329 79.7702 21.615C79.7702 21.2977 79.6456 21.0597 79.3962 20.901C79.1469 20.7537 78.7332 20.6347 78.1552 20.544L76.2852 20.272C75.6392 20.5327 75.3162 20.9293 75.3162 21.462C75.3162 21.87 75.5146 22.176 75.9112 22.38C76.3079 22.584 76.8689 22.686 77.5942 22.686ZM86.9438 11.364C87.9978 11.364 88.7968 11.7153 89.3408 12.418C89.8848 13.1207 90.1568 14.067 90.1568 15.257V20H88.0488V15.427C88.0488 14.6337 87.9128 14.05 87.6408 13.676C87.3802 13.2907 86.9552 13.098 86.3658 13.098C85.7198 13.098 85.1872 13.3417 84.7678 13.829V20H82.6598V11.5H84.6318L84.6658 12.095C85.3798 11.6077 86.1392 11.364 86.9438 11.364ZM102.76 13.489C104.267 13.9763 105.021 15.019 105.021 16.617C105.021 17.6823 104.675 18.5153 103.984 19.116C103.293 19.7053 102.346 20 101.145 20H96.1811V8.1H100.669C102.936 8.1 104.069 9.05767 104.069 10.973C104.069 12.1517 103.633 12.9903 102.76 13.489ZM98.3571 12.775H100.346C100.879 12.775 101.275 12.6673 101.536 12.452C101.797 12.2253 101.927 11.8797 101.927 11.415C101.927 10.9277 101.797 10.5763 101.536 10.361C101.275 10.1457 100.879 10.038 100.346 10.038H98.3571V12.775ZM100.822 18.062C101.457 18.062 101.938 17.9373 102.267 17.688C102.607 17.4273 102.777 16.991 102.777 16.379C102.777 15.7783 102.601 15.3533 102.25 15.104C101.91 14.8433 101.434 14.713 100.822 14.713H98.3571V18.062H100.822ZM108.576 20.17C107.851 20.17 107.307 19.966 106.944 19.558C106.581 19.1387 106.4 18.6003 106.4 17.943V7.25H108.508V17.076C108.508 17.5293 108.531 17.8523 108.576 18.045C108.633 18.2263 108.723 18.3397 108.848 18.385C108.984 18.419 109.211 18.436 109.528 18.436L109.341 20.17H108.576ZM114.642 20.17C113.747 20.17 112.97 19.9717 112.313 19.575C111.656 19.1783 111.151 18.6457 110.8 17.977C110.449 17.3083 110.273 16.5717 110.273 15.767C110.273 14.9623 110.449 14.22 110.8 13.54C111.151 12.86 111.656 12.3217 112.313 11.925C112.97 11.5283 113.747 11.33 114.642 11.33C115.537 11.33 116.314 11.5283 116.971 11.925C117.628 12.3217 118.133 12.86 118.484 13.54C118.835 14.22 119.011 14.9623 119.011 15.767C119.011 16.5717 118.835 17.3083 118.484 17.977C118.133 18.6457 117.628 19.1783 116.971 19.575C116.314 19.9717 115.537 20.17 114.642 20.17ZM114.642 18.436C115.333 18.436 115.872 18.1923 116.257 17.705C116.654 17.2177 116.852 16.5717 116.852 15.767C116.852 14.951 116.654 14.2993 116.257 13.812C115.872 13.3133 115.333 13.064 114.642 13.064C113.951 13.064 113.407 13.3133 113.01 13.812C112.625 14.2993 112.432 14.951 112.432 15.767C112.432 16.5717 112.625 17.2177 113.01 17.705C113.407 18.1923 113.951 18.436 114.642 18.436ZM123.844 24.284C122.643 24.284 121.685 24.063 120.971 23.621C120.257 23.1903 119.9 22.601 119.9 21.853C119.9 21.037 120.359 20.3683 121.277 19.847C120.779 19.541 120.529 19.1387 120.529 18.64C120.529 18.3793 120.603 18.147 120.75 17.943C120.909 17.739 121.119 17.5747 121.379 17.45C120.949 17.144 120.62 16.753 120.393 16.277C120.178 15.801 120.07 15.2797 120.07 14.713C120.07 14.0897 120.206 13.523 120.478 13.013C120.75 12.4917 121.147 12.0837 121.668 11.789C122.19 11.483 122.807 11.33 123.521 11.33C124.269 11.33 124.915 11.5113 125.459 11.874C125.652 11.772 125.907 11.687 126.224 11.619C126.553 11.5397 126.904 11.5 127.278 11.5H127.822L127.686 12.826H126.921C126.729 12.826 126.57 12.8317 126.445 12.843C126.785 13.3643 126.955 13.9877 126.955 14.713C126.955 15.3363 126.819 15.9087 126.547 16.43C126.287 16.94 125.896 17.348 125.374 17.654C124.853 17.9487 124.235 18.096 123.521 18.096C123.261 18.096 122.96 18.0563 122.62 17.977C122.496 18.0337 122.433 18.1243 122.433 18.249C122.433 18.3963 122.518 18.5153 122.688 18.606C122.87 18.6853 123.17 18.7533 123.589 18.81L125.051 18.997C127.001 19.2577 127.975 20.0793 127.975 21.462C127.975 22.3233 127.607 23.009 126.87 23.519C126.145 24.029 125.136 24.284 123.844 24.284ZM123.521 16.532C124.009 16.532 124.383 16.3733 124.643 16.056C124.915 15.7273 125.051 15.2797 125.051 14.713C125.051 14.1463 124.915 13.7043 124.643 13.387C124.383 13.0583 124.009 12.894 123.521 12.894C123.023 12.894 122.637 13.0583 122.365 13.387C122.105 13.7043 121.974 14.1463 121.974 14.713C121.974 15.2797 122.105 15.7273 122.365 16.056C122.637 16.3733 123.023 16.532 123.521 16.532ZM123.929 22.686C125.38 22.686 126.105 22.329 126.105 21.615C126.105 21.2977 125.981 21.0597 125.731 20.901C125.482 20.7537 125.068 20.6347 124.49 20.544L122.62 20.272C121.974 20.5327 121.651 20.9293 121.651 21.462C121.651 21.87 121.85 22.176 122.246 22.38C122.643 22.584 123.204 22.686 123.929 22.686Z" fill="white"/>
<path d="M21.1541 6.07995C21.1242 5.7707 21.2366 5.46504 21.4566 5.25691L23.6975 2.42328V2H16.7395L11.3613 14.381L6.63305 2H-5.66244e-07V2.42328L1.91596 4.35156C2.08114 4.48372 2.16308 4.70094 2.12885 4.91593V19.0841C2.16308 19.2991 2.08114 19.5163 1.91596 19.6484L0.0448169 21.5767V22H9.45658V21.5767L7.51821 19.6014C7.32773 19.4015 7.32773 19.3427 7.32773 19.037V7.58495L12.7171 21.953H13.4454L19.7199 7.58495V17.2146C19.7722 17.6194 19.6441 18.027 19.3725 18.3198L16.8515 21.5297V21.953H24V21.5297L21.479 18.3198C21.2094 18.0266 21.0888 17.6162 21.1541 17.2146V6.07995Z" fill="white"/>
</svg>
