<svg width="94" height="25" viewBox="0 0 94 25" fill="none" xmlns="http://www.w3.org/2000/svg">
<g clip-path="url(#clip0)">
<path d="M16 22.9999V19.1299C16.0375 18.6531 15.9731 18.1737 15.811 17.7237C15.6489 17.2737 15.3929 16.8634 15.06 16.5199C18.2 16.1699 21.5 14.9799 21.5 9.51994C21.4997 8.12376 20.9627 6.78114 20 5.76994C20.4559 4.54844 20.4236 3.19829 19.91 1.99994C19.91 1.99994 18.73 1.64994 16 3.47994C13.708 2.85876 11.292 2.85876 9 3.47994C6.27 1.64994 5.09 1.99994 5.09 1.99994C4.57638 3.19829 4.54414 4.54844 5 5.76994C4.03013 6.78864 3.49252 8.1434 3.5 9.54994C3.5 14.9699 6.8 16.1599 9.94 16.5499C9.611 16.8899 9.35726 17.2953 9.19531 17.7399C9.03335 18.1844 8.96681 18.658 9 19.1299V22.9999M9 19.9999C4 21.4999 4 17.4999 2 16.9999L9 19.9999Z" stroke="white" stroke-width="2" stroke-linecap="round" stroke-linejoin="round"/>
</g>
<path d="M51.352 21.284C50.1507 21.284 49.193 21.063 48.479 20.621C47.765 20.1903 47.408 19.601 47.408 18.853C47.408 18.037 47.867 17.3683 48.785 16.847C48.2863 16.541 48.037 16.1387 48.037 15.64C48.037 15.3793 48.1107 15.147 48.258 14.943C48.4167 14.739 48.6263 14.5747 48.887 14.45C48.4563 14.144 48.1277 13.753 47.901 13.277C47.6857 12.801 47.578 12.2797 47.578 11.713C47.578 11.0897 47.714 10.523 47.986 10.013C48.258 9.49167 48.6547 9.08367 49.176 8.789C49.6973 8.483 50.315 8.33 51.029 8.33C51.777 8.33 52.423 8.51133 52.967 8.874C53.1597 8.772 53.4147 8.687 53.732 8.619C54.0607 8.53967 54.412 8.5 54.786 8.5H55.33L55.194 9.826H54.429C54.2363 9.826 54.0777 9.83167 53.953 9.843C54.293 10.3643 54.463 10.9877 54.463 11.713C54.463 12.3363 54.327 12.9087 54.055 13.43C53.7943 13.94 53.4033 14.348 52.882 14.654C52.3607 14.9487 51.743 15.096 51.029 15.096C50.7683 15.096 50.468 15.0563 50.128 14.977C50.0033 15.0337 49.941 15.1243 49.941 15.249C49.941 15.3963 50.026 15.5153 50.196 15.606C50.3773 15.6853 50.6777 15.7533 51.097 15.81L52.559 15.997C54.5083 16.2577 55.483 17.0793 55.483 18.462C55.483 19.3233 55.1147 20.009 54.378 20.519C53.6527 21.029 52.644 21.284 51.352 21.284ZM51.029 13.532C51.5163 13.532 51.8903 13.3733 52.151 13.056C52.423 12.7273 52.559 12.2797 52.559 11.713C52.559 11.1463 52.423 10.7043 52.151 10.387C51.8903 10.0583 51.5163 9.894 51.029 9.894C50.5303 9.894 50.145 10.0583 49.873 10.387C49.6123 10.7043 49.482 11.1463 49.482 11.713C49.482 12.2797 49.6123 12.7273 49.873 13.056C50.145 13.3733 50.5303 13.532 51.029 13.532ZM51.437 19.686C52.8877 19.686 53.613 19.329 53.613 18.615C53.613 18.2977 53.4883 18.0597 53.239 17.901C52.9897 17.7537 52.576 17.6347 51.998 17.544L50.128 17.272C49.482 17.5327 49.159 17.9293 49.159 18.462C49.159 18.87 49.3573 19.176 49.754 19.38C50.1507 19.584 50.7117 19.686 51.437 19.686ZM56.5026 5.1H58.6106V7.208H56.5026V5.1ZM56.5026 8.5H58.6106V17H56.5026V8.5ZM63.3576 17.17C62.6096 17.17 62.0429 16.9547 61.6576 16.524C61.2723 16.082 61.0796 15.555 61.0796 14.943V10.234H59.8726L60.0596 8.5H61.0796V6.63L63.1876 6.409V8.5H65.0576V10.234H63.1876V14.076C63.1876 14.5293 63.2103 14.8467 63.2556 15.028C63.3123 15.198 63.4199 15.3113 63.5786 15.368C63.7486 15.4133 64.0489 15.436 64.4796 15.436H65.0576L64.8706 17.17H63.3576ZM70.7143 8.364C71.791 8.364 72.59 8.71533 73.1113 9.418C73.644 10.1093 73.9103 11.0613 73.9103 12.274V17H71.8023V12.427C71.8023 11.6223 71.672 11.033 71.4113 10.659C71.1507 10.285 70.737 10.098 70.1703 10.098C69.5017 10.098 68.952 10.3417 68.5213 10.829V17H66.4133V4.25H68.5213V9.044C68.8613 8.82867 69.207 8.66433 69.5583 8.551C69.9097 8.42633 70.295 8.364 70.7143 8.364ZM83.1392 8.5V17H81.1672L81.1332 16.49C80.8725 16.6827 80.5722 16.847 80.2322 16.983C79.8922 17.1077 79.5635 17.17 79.2462 17.17C77.9882 17.17 77.0702 16.8073 76.4922 16.082C75.9255 15.3567 75.6422 14.3537 75.6422 13.073V8.5H77.7502V13.073C77.7502 13.8663 77.8805 14.4557 78.1412 14.841C78.4132 15.215 78.8439 15.402 79.4332 15.402C80.0905 15.402 80.6232 15.164 81.0312 14.688V8.5H83.1392ZM89.5271 8.364C90.3318 8.364 91.0231 8.56233 91.6011 8.959C92.1791 9.35567 92.6154 9.88833 92.9101 10.557C93.2048 11.2257 93.3521 11.9623 93.3521 12.767C93.3521 13.5717 93.2048 14.3083 92.9101 14.977C92.6154 15.6457 92.1791 16.1783 91.6011 16.575C91.0231 16.9717 90.3318 17.17 89.5271 17.17C88.6318 17.17 87.8214 16.9263 87.0961 16.439L87.0621 17H85.0901V4.25H87.1981V9.129C87.8894 8.619 88.6658 8.364 89.5271 8.364ZM89.2211 15.436C89.8444 15.436 90.3261 15.1923 90.6661 14.705C91.0174 14.2177 91.1931 13.5717 91.1931 12.767C91.1931 11.9623 91.0174 11.3163 90.6661 10.829C90.3261 10.3417 89.8444 10.098 89.2211 10.098C88.5071 10.098 87.9744 10.336 87.6231 10.812C87.2718 11.288 87.0961 11.9397 87.0961 12.767C87.0961 13.5943 87.2718 14.246 87.6231 14.722C87.9744 15.198 88.5071 15.436 89.2211 15.436Z" fill="white"/>
<defs>
<clipPath id="clip0">
<rect width="24" height="24" fill="white" transform="translate(0 1)"/>
</clipPath>
</defs>
</svg>
