<svg width="96" height="25" viewBox="0 0 96 25" fill="none" xmlns="http://www.w3.org/2000/svg">
<g clip-path="url(#clip0)">
<path d="M4 3H20C21.1 3 22 3.9 22 5V17C22 18.1 21.1 19 20 19H4C2.9 19 2 18.1 2 17V5C2 3.9 2.9 3 4 3Z" stroke="white" stroke-width="2" stroke-linecap="round" stroke-linejoin="round"/>
<path d="M22 5L12 12L2 5" stroke="white" stroke-width="2" stroke-linecap="round" stroke-linejoin="round"/>
</g>
<path d="M51.76 17.238C51.0913 17.238 50.3717 17.1473 49.601 16.966C48.8417 16.7847 48.2467 16.5863 47.816 16.371L48.071 14.059C49.567 14.7843 50.8817 15.147 52.015 15.147C52.6157 15.147 53.086 15.0337 53.426 14.807C53.766 14.569 53.936 14.2233 53.936 13.77C53.936 13.43 53.8397 13.1523 53.647 12.937C53.4657 12.7103 53.1993 12.5233 52.848 12.376C52.4967 12.2173 51.9357 12.002 51.165 11.73C50.4397 11.4807 49.839 11.22 49.363 10.948C48.887 10.6647 48.5073 10.3077 48.224 9.877C47.952 9.435 47.816 8.89667 47.816 8.262C47.816 7.242 48.19 6.42033 48.938 5.797C49.686 5.17367 50.757 4.862 52.151 4.862C52.8083 4.862 53.46 4.93567 54.106 5.083C54.7633 5.23033 55.364 5.41167 55.908 5.627L55.687 7.854C54.9843 7.548 54.3383 7.32133 53.749 7.174C53.171 7.01533 52.593 6.936 52.015 6.936C51.369 6.936 50.876 7.04367 50.536 7.259C50.196 7.47433 50.026 7.786 50.026 8.194C50.026 8.51133 50.1167 8.772 50.298 8.976C50.4793 9.18 50.723 9.35 51.029 9.486C51.3463 9.622 51.811 9.78633 52.423 9.979C53.7943 10.4097 54.7917 10.9083 55.415 11.475C56.0497 12.0303 56.367 12.7953 56.367 13.77C56.367 14.6993 56.044 15.5097 55.398 16.201C54.752 16.8923 53.5393 17.238 51.76 17.238ZM59.6833 17.17C58.9807 17.17 58.3913 16.9433 57.9153 16.49C57.4507 16.0253 57.2183 15.402 57.2183 14.62C57.2183 13.8833 57.4847 13.294 58.0173 12.852C58.55 12.3987 59.179 12.0813 59.9043 11.9C60.6297 11.7073 61.3267 11.5997 61.9953 11.577C61.9727 11.0783 61.8423 10.7213 61.6043 10.506C61.3777 10.2907 60.998 10.183 60.4653 10.183C60.0913 10.183 59.723 10.234 59.3603 10.336C59.009 10.438 58.601 10.6023 58.1363 10.829L57.9493 9.112C58.9807 8.61333 60.012 8.364 61.0433 8.364C62.0407 8.364 62.8 8.636 63.3213 9.18C63.854 9.724 64.1203 10.591 64.1203 11.781V14.076C64.1203 14.5067 64.1373 14.8183 64.1713 15.011C64.2167 15.1923 64.2847 15.3113 64.3753 15.368C64.4773 15.4133 64.6417 15.436 64.8683 15.436H65.1403L64.9533 17.17H64.1883C63.7237 17.17 63.3327 17.085 63.0153 16.915C62.698 16.7337 62.4543 16.49 62.2843 16.184C62.0123 16.49 61.6383 16.7337 61.1623 16.915C60.6977 17.085 60.2047 17.17 59.6833 17.17ZM60.5673 15.555C60.7827 15.555 61.0263 15.504 61.2983 15.402C61.5703 15.2887 61.8083 15.1357 62.0123 14.943V13.005C61.3323 13.039 60.7317 13.1863 60.2103 13.447C59.689 13.7077 59.4283 14.0703 59.4283 14.535C59.4283 14.8863 59.519 15.147 59.7003 15.317C59.8817 15.4757 60.1707 15.555 60.5673 15.555ZM68.5159 16.439L64.9799 8.5H67.3259L69.5019 13.974L71.7119 8.5H74.0579L68.7369 21.114H66.6289L68.5159 16.439ZM83.1821 8.364C84.2588 8.364 85.0578 8.71533 85.5791 9.418C86.1118 10.1093 86.3781 11.0613 86.3781 12.274V17H84.2701V12.427C84.2701 11.6223 84.1398 11.033 83.8791 10.659C83.6184 10.285 83.2048 10.098 82.6381 10.098C81.9694 10.098 81.4198 10.3417 80.9891 10.829V17H78.8811V4.25H80.9891V9.044C81.3291 8.82867 81.6748 8.66433 82.0261 8.551C82.3774 8.42633 82.7628 8.364 83.1821 8.364ZM88.2614 5.1H90.3694V7.208H88.2614V5.1ZM88.2614 8.5H90.3694V17H88.2614V8.5ZM92.6174 12.988L92.4304 5.1H94.5384L94.3514 12.988V13.481H92.6174V12.988ZM92.3794 14.688H94.5894V17H92.3794V14.688Z" fill="white"/>
<defs>
<clipPath id="clip0">
<rect width="24" height="24" fill="white" transform="translate(0 1)"/>
</clipPath>
</defs>
</svg>
