<svg width="130" height="24" viewBox="0 0 130 24" fill="none" xmlns="http://www.w3.org/2000/svg">
<path d="M4 19.5C4 18.837 4.26339 18.2011 4.73223 17.7322C5.20107 17.2634 5.83696 17 6.5 17H20" stroke="white" stroke-width="2" stroke-linecap="round" stroke-linejoin="round"/>
<path d="M6.5 2H20V22H6.5C5.83696 22 5.20107 21.7366 4.73223 21.2678C4.26339 20.7989 4 20.163 4 19.5V4.5C4 3.83696 4.26339 3.20107 4.73223 2.73223C5.20107 2.26339 5.83696 2 6.5 2V2Z" stroke="white" stroke-width="2" stroke-linecap="round" stroke-linejoin="round"/>
<path d="M54.152 19L53.132 11.027L50.089 16.501L47.029 11.044L46.009 19H43.748L45.397 7.1H47.182L50.089 12.523L52.979 7.1H54.764L56.413 19H54.152ZM60.2991 18.439L56.7631 10.5H59.1091L61.2851 15.974L63.4951 10.5H65.8411L60.5201 23.114H58.4121L60.2991 18.439ZM77.5833 12.489C79.0906 12.9763 79.8443 14.019 79.8443 15.617C79.8443 16.6823 79.4986 17.5153 78.8073 18.116C78.116 18.7053 77.1696 19 75.9683 19H71.0043V7.1H75.4923C77.759 7.1 78.8923 8.05767 78.8923 9.973C78.8923 11.1517 78.456 11.9903 77.5833 12.489ZM73.1803 11.775H75.1693C75.702 11.775 76.0986 11.6673 76.3593 11.452C76.62 11.2253 76.7503 10.8797 76.7503 10.415C76.7503 9.92767 76.62 9.57633 76.3593 9.361C76.0986 9.14567 75.702 9.038 75.1693 9.038H73.1803V11.775ZM75.6453 17.062C76.28 17.062 76.7616 16.9373 77.0903 16.688C77.4303 16.4273 77.6003 15.991 77.6003 15.379C77.6003 14.7783 77.4246 14.3533 77.0733 14.104C76.7333 13.8433 76.2573 13.713 75.6453 13.713H73.1803V17.062H75.6453ZM85.1819 19.17C84.2866 19.17 83.5102 18.9717 82.8529 18.575C82.1956 18.1783 81.6912 17.6457 81.3399 16.977C80.9886 16.3083 80.8129 15.5717 80.8129 14.767C80.8129 13.9623 80.9886 13.22 81.3399 12.54C81.6912 11.86 82.1956 11.3217 82.8529 10.925C83.5102 10.5283 84.2866 10.33 85.1819 10.33C86.0772 10.33 86.8536 10.5283 87.5109 10.925C88.1682 11.3217 88.6726 11.86 89.0239 12.54C89.3752 13.22 89.5509 13.9623 89.5509 14.767C89.5509 15.5717 89.3752 16.3083 89.0239 16.977C88.6726 17.6457 88.1682 18.1783 87.5109 18.575C86.8536 18.9717 86.0772 19.17 85.1819 19.17ZM85.1819 17.436C85.8732 17.436 86.4116 17.1923 86.7969 16.705C87.1936 16.2177 87.3919 15.5717 87.3919 14.767C87.3919 13.951 87.1936 13.2993 86.7969 12.812C86.4116 12.3133 85.8732 12.064 85.1819 12.064C84.4906 12.064 83.9466 12.3133 83.5499 12.812C83.1646 13.2993 82.9719 13.951 82.9719 14.767C82.9719 15.5717 83.1646 16.2177 83.5499 16.705C83.9466 17.1923 84.4906 17.436 85.1819 17.436ZM94.8772 19.17C93.9819 19.17 93.2056 18.9717 92.5482 18.575C91.8909 18.1783 91.3866 17.6457 91.0352 16.977C90.6839 16.3083 90.5082 15.5717 90.5082 14.767C90.5082 13.9623 90.6839 13.22 91.0352 12.54C91.3866 11.86 91.8909 11.3217 92.5482 10.925C93.2056 10.5283 93.9819 10.33 94.8772 10.33C95.7726 10.33 96.5489 10.5283 97.2062 10.925C97.8636 11.3217 98.3679 11.86 98.7192 12.54C99.0706 13.22 99.2462 13.9623 99.2462 14.767C99.2462 15.5717 99.0706 16.3083 98.7192 16.977C98.3679 17.6457 97.8636 18.1783 97.2062 18.575C96.5489 18.9717 95.7726 19.17 94.8772 19.17ZM94.8772 17.436C95.5686 17.436 96.1069 17.1923 96.4922 16.705C96.8889 16.2177 97.0872 15.5717 97.0872 14.767C97.0872 13.951 96.8889 13.2993 96.4922 12.812C96.1069 12.3133 95.5686 12.064 94.8772 12.064C94.1859 12.064 93.6419 12.3133 93.2452 12.812C92.8599 13.2993 92.6672 13.951 92.6672 14.767C92.6672 15.5717 92.8599 16.2177 93.2452 16.705C93.6419 17.1923 94.1859 17.436 94.8772 17.436ZM100.697 6.25H102.805V13.985L105.44 10.5H107.82L104.726 14.58L107.888 19H105.508L102.805 15.226V19H100.697V6.25ZM111.141 19.17C110.415 19.17 109.871 18.966 109.509 18.558C109.146 18.1387 108.965 17.6003 108.965 16.943V6.25H111.073V16.076C111.073 16.5293 111.095 16.8523 111.141 17.045C111.197 17.2263 111.288 17.3397 111.413 17.385C111.549 17.419 111.775 17.436 112.093 17.436L111.906 19.17H111.141ZM113.43 7.1H115.538V9.208H113.43V7.1ZM113.43 10.5H115.538V19H113.43V10.5ZM119.928 19.17C119.384 19.17 118.886 19.119 118.432 19.017C117.99 18.915 117.531 18.7563 117.055 18.541L117.242 16.739C117.718 17.0223 118.16 17.2377 118.568 17.385C118.988 17.521 119.418 17.589 119.86 17.589C120.722 17.589 121.152 17.3057 121.152 16.739C121.152 16.433 121.039 16.2007 120.812 16.042C120.586 15.872 120.178 15.6737 119.588 15.447C118.75 15.141 118.132 14.7953 117.735 14.41C117.339 14.0133 117.14 13.4807 117.14 12.812C117.14 12.0753 117.424 11.4803 117.99 11.027C118.557 10.5623 119.322 10.33 120.285 10.33C121.249 10.33 122.127 10.551 122.92 10.993L122.733 12.795C122.303 12.5003 121.895 12.2737 121.509 12.115C121.135 11.9563 120.739 11.877 120.319 11.877C119.957 11.877 119.673 11.9507 119.469 12.098C119.277 12.2453 119.18 12.455 119.18 12.727C119.18 12.9423 119.237 13.118 119.35 13.254C119.475 13.39 119.645 13.5147 119.86 13.628C120.076 13.73 120.433 13.8773 120.931 14.07C121.759 14.3873 122.354 14.7387 122.716 15.124C123.079 15.498 123.26 16.0023 123.26 16.637C123.26 17.4417 122.971 18.065 122.393 18.507C121.815 18.949 120.994 19.17 119.928 19.17ZM127.474 19.17C126.726 19.17 126.159 18.9547 125.774 18.524C125.388 18.082 125.196 17.555 125.196 16.943V12.234H123.989L124.176 10.5H125.196V8.63L127.304 8.409V10.5H129.174V12.234H127.304V16.076C127.304 16.5293 127.326 16.8467 127.372 17.028C127.428 17.198 127.536 17.3113 127.695 17.368C127.865 17.4133 128.165 17.436 128.596 17.436H129.174L128.987 19.17H127.474Z" fill="white"/>
</svg>
