<svg width="96" height="25" viewBox="0 0 96 25" fill="none" xmlns="http://www.w3.org/2000/svg">
<g clip-path="url(#clip0)">
<path d="M23 2.00005C22.0424 2.67552 20.9821 3.19216 19.86 3.53005C19.2577 2.83756 18.4573 2.34674 17.567 2.12397C16.6767 1.90121 15.7395 1.95724 14.8821 2.2845C14.0247 2.61176 13.2884 3.19445 12.773 3.95376C12.2575 4.71308 11.9877 5.61238 12 6.53005V7.53005C10.2426 7.57561 8.50127 7.18586 6.93101 6.39549C5.88866 5.87084 4.94318 5.18048 4.12975 4.35479C3.58427 3.8011 2.64579 3.92142 2.4636 4.67701C1.78907 7.47455 1.41765 13.0746 8 16C5.94053 17.398 3.48716 18.099 1 18C10 23 21 18 21 6.50005C20.9991 6.2215 20.9723 5.94364 20.92 5.67005C21.9406 4.66354 22.6608 3.39276 23 2.00005Z" stroke="white" stroke-width="2" stroke-linecap="round" stroke-linejoin="round"/>
</g>
<path d="M48.621 7.208H45.255V5.1H54.163V7.208H50.797V17H48.621V7.208ZM53.2882 8.5H55.3452L56.8072 14.433L58.4052 8.67H60.1732L61.7542 14.433L63.2332 8.5H65.2902L62.8082 17H61.0402L59.2892 11.458L57.5382 17H55.7702L53.2882 8.5ZM66.4391 5.1H68.5471V7.208H66.4391V5.1ZM66.4391 8.5H68.5471V17H66.4391V8.5ZM73.2941 17.17C72.5461 17.17 71.9794 16.9547 71.5941 16.524C71.2088 16.082 71.0161 15.555 71.0161 14.943V10.234H69.8091L69.9961 8.5H71.0161V6.63L73.1241 6.409V8.5H74.9941V10.234H73.1241V14.076C73.1241 14.5293 73.1468 14.8467 73.1921 15.028C73.2488 15.198 73.3564 15.3113 73.5151 15.368C73.6851 15.4133 73.9854 15.436 74.4161 15.436H74.9941L74.8071 17.17H73.2941ZM79.1379 17.17C78.3899 17.17 77.8232 16.9547 77.4379 16.524C77.0525 16.082 76.8599 15.555 76.8599 14.943V10.234H75.6529L75.8399 8.5H76.8599V6.63L78.9679 6.409V8.5H80.8379V10.234H78.9679V14.076C78.9679 14.5293 78.9905 14.8467 79.0359 15.028C79.0925 15.198 79.2002 15.3113 79.3589 15.368C79.5289 15.4133 79.8292 15.436 80.2599 15.436H80.8379L80.6509 17.17H79.1379ZM86.3076 17.17C85.3216 17.17 84.4773 16.9717 83.7746 16.575C83.0833 16.167 82.5619 15.6287 82.2106 14.96C81.8706 14.28 81.7006 13.5263 81.7006 12.699C81.7006 11.9057 81.8649 11.1803 82.1936 10.523C82.5223 9.86567 82.9983 9.34433 83.6216 8.959C84.2449 8.56233 84.9873 8.364 85.8486 8.364C86.6419 8.364 87.3106 8.52833 87.8546 8.857C88.4099 9.18567 88.8236 9.62767 89.0956 10.183C89.3789 10.7383 89.5206 11.3617 89.5206 12.053C89.5206 12.393 89.4753 12.7783 89.3846 13.209H83.8936C84.0069 13.957 84.3016 14.518 84.7776 14.892C85.2536 15.2547 85.8259 15.436 86.4946 15.436C87.4126 15.436 88.2626 15.2037 89.0446 14.739L89.1466 16.524C88.7839 16.7167 88.3589 16.8753 87.8716 17C87.3956 17.1133 86.8743 17.17 86.3076 17.17ZM87.3786 11.781C87.3786 11.339 87.2539 10.948 87.0046 10.608C86.7553 10.268 86.3699 10.098 85.8486 10.098C85.3273 10.098 84.9079 10.251 84.5906 10.557C84.2733 10.863 84.0579 11.271 83.9446 11.781H87.3786ZM90.9596 8.5H92.9316L92.9826 9.401C93.232 9.11767 93.5493 8.86833 93.9346 8.653C94.3313 8.43767 94.745 8.33 95.1756 8.33C95.3116 8.33 95.4363 8.34133 95.5496 8.364L95.3966 10.438C95.1813 10.3813 94.9376 10.353 94.6656 10.353C94.3143 10.353 93.9913 10.438 93.6966 10.608C93.402 10.7667 93.1923 10.965 93.0676 11.203V17H90.9596V8.5Z" fill="white"/>
<defs>
<clipPath id="clip0">
<rect width="24" height="24" fill="white" transform="translate(0 1)"/>
</clipPath>
</defs>
</svg>
