<svg width="120" height="30" viewBox="0 0 120 30" fill="none" xmlns="http://www.w3.org/2000/svg">
<g clip-path="url(#clip0)">
<path d="M23 7.00005C22.0424 7.67552 20.9821 8.19216 19.86 8.53005C19.2577 7.83756 18.4573 7.34674 17.567 7.12397C16.6767 6.90121 15.7395 6.95724 14.8821 7.2845C14.0247 7.61176 13.2884 8.19445 12.773 8.95376C12.2575 9.71308 11.9877 10.6124 12 11.53V12.53C10.2426 12.5756 8.50127 12.1859 6.93101 11.3955C5.88866 10.8708 4.94318 10.1805 4.12975 9.35479C3.58427 8.8011 2.64579 8.92142 2.4636 9.67701C1.78907 12.4745 1.41765 18.0746 8 21C5.94053 22.398 3.48716 23.099 1 23C10 28 21 23 21 11.5C20.9991 11.2215 20.9723 10.9436 20.92 10.67C21.9406 9.66354 22.6608 8.39276 23 7.00005Z" stroke="white" stroke-width="2" stroke-linecap="round" stroke-linejoin="round"/>
</g>
<path d="M50.325 9.6H45.375V6.5H58.475V9.6H53.525V24H50.325V9.6ZM57.1885 11.5H60.2135L62.3635 20.225L64.7135 11.75H67.3135L69.6385 20.225L71.8135 11.5H74.8385L71.1885 24H68.5885L66.0135 15.85L63.4385 24H60.8385L57.1885 11.5ZM76.5281 6.5H79.6281V9.6H76.5281V6.5ZM76.5281 11.5H79.6281V24H76.5281V11.5ZM86.609 24.25C85.509 24.25 84.6757 23.9333 84.109 23.3C83.5423 22.65 83.259 21.875 83.259 20.975V14.05H81.484L81.759 11.5H83.259V8.75L86.359 8.425V11.5H89.109V14.05H86.359V19.7C86.359 20.3667 86.3923 20.8333 86.459 21.1C86.5423 21.35 86.7007 21.5167 86.934 21.6C87.184 21.6667 87.6257 21.7 88.259 21.7H89.109L88.834 24.25H86.609ZM95.2027 24.25C94.1027 24.25 93.2694 23.9333 92.7027 23.3C92.1361 22.65 91.8527 21.875 91.8527 20.975V14.05H90.0777L90.3527 11.5H91.8527V8.75L94.9527 8.425V11.5H97.7027V14.05H94.9527V19.7C94.9527 20.3667 94.9861 20.8333 95.0527 21.1C95.1361 21.35 95.2944 21.5167 95.5277 21.6C95.7777 21.6667 96.2194 21.7 96.8527 21.7H97.7027L97.4277 24.25H95.2027ZM105.746 24.25C104.296 24.25 103.055 23.9583 102.021 23.375C101.005 22.775 100.238 21.9833 99.7215 21C99.2215 20 98.9715 18.8917 98.9715 17.675C98.9715 16.5083 99.2132 15.4417 99.6965 14.475C100.18 13.5083 100.88 12.7417 101.796 12.175C102.713 11.5917 103.805 11.3 105.071 11.3C106.238 11.3 107.221 11.5417 108.021 12.025C108.838 12.5083 109.446 13.1583 109.846 13.975C110.263 14.7917 110.471 15.7083 110.471 16.725C110.471 17.225 110.405 17.7917 110.271 18.425H102.196C102.363 19.525 102.796 20.35 103.496 20.9C104.196 21.4333 105.038 21.7 106.021 21.7C107.371 21.7 108.621 21.3583 109.771 20.675L109.921 23.3C109.388 23.5833 108.763 23.8167 108.046 24C107.346 24.1667 106.58 24.25 105.746 24.25ZM107.321 16.325C107.321 15.675 107.138 15.1 106.771 14.6C106.405 14.1 105.838 13.85 105.071 13.85C104.305 13.85 103.688 14.075 103.221 14.525C102.755 14.975 102.438 15.575 102.271 16.325H107.321ZM112.588 11.5H115.488L115.563 12.825C115.929 12.4083 116.396 12.0417 116.963 11.725C117.546 11.4083 118.154 11.25 118.788 11.25C118.988 11.25 119.171 11.2667 119.338 11.3L119.113 14.35C118.796 14.2667 118.438 14.225 118.038 14.225C117.521 14.225 117.046 14.35 116.613 14.6C116.179 14.8333 115.871 15.125 115.688 15.475V24H112.588V11.5Z" fill="white"/>
<defs>
<clipPath id="clip0">
<rect width="24" height="24" fill="white" transform="translate(0 6)"/>
</clipPath>
</defs>
</svg>
